# Blender v2.81 (sub 16) OBJ File: 'DungeonTilesPaint.blend'
# www.blender.org
mtllib DividerWall.mtl
o DividerWallPaint_DividerWall.001
v -1.250000 3.245000 -0.250000
v -3.250000 3.245000 -0.250000
v -3.250000 3.245000 0.250000
v -1.250000 3.245000 0.250000
v 3.250000 3.245000 -0.250000
v 1.250000 3.245000 -0.250000
v 1.250000 3.245000 0.250000
v 3.250000 3.245000 0.250000
v -3.250000 -0.005000 0.250000
v -1.250000 -0.005000 0.250000
v -1.250000 0.245000 0.250000
v -3.250000 0.245000 0.250000
v -1.150000 -0.005000 0.150000
v -1.150000 -0.005000 -0.150000
v -1.150000 0.245000 -0.150000
v -1.150000 0.245000 0.150000
v -1.250000 -0.005000 -0.250000
v -3.250000 -0.005000 -0.250000
v -3.250000 0.245000 -0.250000
v -1.250000 0.245000 -0.250000
v 3.250000 -0.005000 0.250000
v 3.250000 -0.005000 -0.250000
v 3.250000 0.245000 -0.250000
v 3.250000 0.245000 0.250000
v 1.250000 -0.005000 -0.250000
v 1.250000 0.245000 -0.250000
v 1.150000 -0.005000 -0.150000
v 1.150000 -0.005000 0.150000
v 1.150000 0.245000 0.150000
v 1.150000 0.245000 -0.150000
v 1.250000 -0.005000 0.250000
v 1.250000 0.245000 0.250000
v -3.250000 0.495000 0.250000
v -1.150000 0.495000 -0.150000
v -1.150000 0.495000 0.150000
v -3.250000 0.495000 -0.250000
v -1.250000 0.495000 -0.250000
v -3.500000 0.245000 -0.250000
v -3.500000 0.245000 0.250000
v -3.500000 0.495000 0.250000
v -3.500000 0.495000 -0.250000
v 3.500000 0.245000 0.250000
v 3.500000 0.245000 -0.250000
v 3.500000 0.495000 -0.250000
v 3.500000 0.495000 0.250000
v 1.250000 0.495000 -0.250000
v 3.250000 0.495000 -0.250000
v 1.150000 0.495000 0.150000
v 1.150000 0.495000 -0.150000
v 3.250000 0.495000 0.250000
v 1.250000 0.495000 0.250000
v -3.250000 2.995000 0.250000
v -3.250000 2.995000 -0.250000
v -3.500000 2.995000 -0.250000
v -3.500000 2.995000 0.250000
v 3.250000 2.995000 -0.250000
v 3.250000 2.995000 0.250000
v 3.500000 2.995000 0.250000
v 3.500000 2.995000 -0.250000
v -1.150000 2.453600 -0.150000
v -1.150000 2.453600 0.150000
v -3.250000 2.495000 -0.250000
v -1.250000 2.495000 -0.250000
v -3.500000 2.495000 -0.250000
v -3.500000 2.495000 0.250000
v 3.500000 2.495000 0.250000
v 3.250000 2.495000 0.250000
v 3.500000 2.495000 -0.250000
v 3.250000 2.495000 -0.250000
v 1.250000 2.495000 -0.250000
v 1.150000 2.453600 0.150000
v 1.150000 2.453600 -0.150000
v 1.250000 2.495000 0.250000
v -1.250000 2.745000 0.250000
v -3.250000 2.745000 0.250000
v -3.250000 2.745000 -0.250000
v -1.250000 2.745000 -0.250000
v -3.500000 2.745000 -0.250000
v -3.500000 2.745000 0.250000
v 3.500000 2.745000 0.250000
v 3.250000 2.745000 0.250000
v 3.500000 2.745000 -0.250000
v 3.250000 2.745000 -0.250000
v 1.250000 2.745000 -0.250000
v 1.250000 2.745000 0.250000
v -1.250000 2.995000 0.250000
v -1.250000 2.995000 -0.250000
v 1.250000 2.995000 -0.250000
v 1.250000 2.995000 0.250000
v -0.929300 2.674300 -0.150000
v -0.929300 2.674300 0.150000
v -1.000000 2.745000 -0.250000
v -1.000000 2.995000 -0.250000
v -1.000000 3.245000 -0.250000
v -1.000000 3.245000 0.250000
v -1.000000 2.995000 0.250000
v -1.000000 2.745000 0.250000
v 0.929300 2.674300 0.150000
v 0.929300 2.674300 -0.150000
v 1.000000 2.745000 0.250000
v 1.000000 2.995000 0.250000
v 1.000000 3.245000 0.250000
v 1.000000 3.245000 -0.250000
v 1.000000 2.995000 -0.250000
v 1.000000 2.745000 -0.250000
v -0.708600 2.895000 -0.150000
v -0.708600 2.895000 0.150000
v -0.750000 2.995000 -0.250000
v -0.750000 3.245000 -0.250000
v -0.750000 3.245000 0.250000
v -0.750000 2.995000 0.250000
v 0.708600 2.895000 0.150000
v 0.708600 2.895000 -0.150000
v 0.750000 2.995000 0.250000
v 0.750000 3.245000 0.250000
v 0.750000 3.245000 -0.250000
v 0.750000 2.995000 -0.250000
v -0.500000 2.895000 -0.150000
v -0.500000 2.895000 0.150000
v -0.500000 3.245000 -0.250000
v -0.500000 2.995000 -0.250000
v -0.500000 3.245000 0.250000
v -0.500000 2.995000 0.250000
v 0.500000 2.895000 0.150000
v 0.500000 2.895000 -0.150000
v 0.500000 3.245000 0.250000
v 0.500000 2.995000 0.250000
v 0.500000 3.245000 -0.250000
v 0.500000 2.995000 -0.250000
v 1.250000 0.245000 0.150000
v 1.250000 -0.005000 0.150000
v 1.250000 0.495000 0.150000
v 1.250000 2.495000 0.150000
v 1.000000 2.745000 0.150000
v 0.750000 2.995000 0.150000
v 0.500000 2.995000 0.150000
v -0.500000 2.995000 0.150000
v -0.750000 2.995000 0.150000
v -1.000000 2.745000 0.150000
v -1.250000 2.495000 0.150000
v -1.250000 0.495000 0.150000
v -1.250000 0.245000 0.150000
v -1.250000 -0.005000 0.150000
v -1.250000 0.245000 -0.150000
v -1.250000 -0.005000 -0.150000
v -1.250000 0.495000 -0.150000
v -1.250000 2.495000 -0.150000
v -1.000000 2.745000 -0.150000
v -0.750000 2.995000 -0.150000
v -0.500000 2.995000 -0.150000
v 0.500000 2.995000 -0.150000
v 0.750000 2.995000 -0.150000
v 1.000000 2.745000 -0.150000
v 1.250000 2.495000 -0.150000
v 1.250000 0.495000 -0.150000
v 1.250000 0.245000 -0.150000
v 1.250000 -0.005000 -0.150000
v -1.250000 0.495000 0.250000
v -3.250000 2.495000 0.250000
v -1.250000 2.495000 0.250000
v 1.250000 0.120000 -0.150000
v 1.250000 0.120000 0.150000
v 1.250000 0.120000 0.250000
v 1.150000 0.120000 0.150000
v 1.150000 0.120000 -0.150000
v 1.250000 0.120000 -0.250000
v 3.250000 0.120000 -0.250000
v 3.250000 0.120000 0.250000
v 0.500000 3.120000 -0.250000
v 0.500000 3.120000 0.250000
v -0.500000 3.120000 0.250000
v -0.500000 3.120000 -0.250000
v 0.750000 3.120000 -0.250000
v 0.750000 3.120000 0.250000
v -0.750000 3.120000 0.250000
v -0.750000 3.120000 -0.250000
v 1.000000 3.120000 -0.250000
v 1.000000 3.120000 0.250000
v -1.000000 3.120000 0.250000
v -1.000000 3.120000 -0.250000
v 1.250000 3.120000 0.250000
v 1.250000 3.120000 -0.250000
v 3.250000 3.120000 -0.250000
v 3.250000 3.120000 0.250000
v -3.250000 3.120000 -0.250000
v -1.250000 3.120000 -0.250000
v -1.250000 3.120000 0.250000
v -3.250000 3.120000 0.250000
v -3.250000 0.120000 0.250000
v -1.250000 0.120000 0.250000
v -1.150000 0.120000 0.150000
v -1.150000 0.120000 -0.150000
v -1.250000 0.120000 -0.250000
v -3.250000 0.120000 -0.250000
v -1.250000 0.120000 0.150000
v -1.250000 0.120000 -0.150000
vt 0.371980 0.497321
vt 0.371980 0.705693
vt 0.358957 0.705693
vt 0.358957 0.497321
vt 0.328026 0.028488
vt 0.328026 0.236859
vt 0.315002 0.236859
vt 0.315002 0.028488
vt 0.959660 0.054533
vt 0.959660 0.002441
vt 0.972684 0.002441
vt 0.972684 0.054533
vt 0.959656 0.113870
vt 0.959656 0.061777
vt 0.972679 0.061777
vt 0.972679 0.113870
vt 0.671514 0.028486
vt 0.671514 0.236857
vt 0.658491 0.236857
vt 0.658491 0.028486
vt 0.671514 0.497321
vt 0.671514 0.705693
vt 0.658491 0.705693
vt 0.658491 0.497321
vt 0.288956 0.236859
vt 0.288956 0.028488
vt 0.053626 0.324249
vt 0.053626 0.272156
vt 0.079672 0.272156
vt 0.079672 0.324249
vt 0.397110 0.324250
vt 0.397110 0.272158
vt 0.423156 0.272158
vt 0.423156 0.324250
vt 0.328026 0.497324
vt 0.328026 0.705695
vt 0.315002 0.705695
vt 0.315002 0.497324
vt 0.632444 0.236857
vt 0.632444 0.028486
vt 0.288956 0.002442
vt 0.315002 0.002442
vt 0.946634 0.173206
vt 0.946634 0.121113
vt 0.972680 0.121113
vt 0.972680 0.173206
vt 0.632444 0.705693
vt 0.658491 0.731739
vt 0.632444 0.731739
vt 0.946632 0.232543
vt 0.946632 0.180450
vt 0.972679 0.180450
vt 0.972679 0.232543
vt 0.844722 0.202027
vt 0.844722 0.254119
vt 0.818676 0.254119
vt 0.818676 0.202027
vt 0.632444 0.002439
vt 0.658491 0.002439
vt 0.746398 0.266753
vt 0.798491 0.266753
vt 0.798491 0.292800
vt 0.746398 0.292800
vt 0.288956 0.705695
vt 0.315002 0.731741
vt 0.288956 0.731741
vt 0.632444 0.497321
vt 0.424073 0.731739
vt 0.424073 0.705693
vt 0.288044 0.272156
vt 0.288044 0.324249
vt 0.080585 0.028488
vt 0.080585 0.002442
vt 0.080585 0.731742
vt 0.080585 0.705695
vt 0.631528 0.272158
vt 0.631528 0.324250
vt 0.424073 0.028486
vt 0.424073 0.002439
vt 0.288956 0.497324
vt 0.424073 0.236857
vt 0.424073 0.497321
vt 0.080585 0.236859
vt 0.054538 0.236859
vt 0.054538 0.028488
vt 0.398026 0.731739
vt 0.398026 0.705693
vt 0.314090 0.272156
vt 0.314090 0.324249
vt 0.054538 0.002442
vt 0.054538 0.731742
vt 0.054538 0.705695
vt 0.657574 0.272158
vt 0.657574 0.324250
vt 0.398026 0.028486
vt 0.398026 0.002439
vt 0.080585 0.497324
vt 0.398026 0.236857
vt 0.398026 0.497321
vt 0.028492 0.236859
vt 0.028492 0.028488
vt 0.371980 0.731739
vt 0.340136 0.272156
vt 0.340136 0.324249
vt 0.028492 0.002442
vt 0.028492 0.731742
vt 0.028492 0.705695
vt 0.683621 0.272158
vt 0.683621 0.324250
vt 0.371980 0.028486
vt 0.371980 0.002439
vt 0.054538 0.497324
vt 0.371980 0.236857
vt 0.028492 0.497324
vt 0.398026 0.471275
vt 0.371980 0.471275
vt 0.015469 0.236859
vt 0.028492 0.262906
vt 0.015469 0.262906
vt 0.054538 0.262906
vt 0.054538 0.471277
vt 0.028492 0.471277
vt 0.358957 0.236857
vt 0.371980 0.262904
vt 0.358957 0.262904
vt 0.398026 0.262904
vt 0.371980 0.445229
vt 0.028492 0.288952
vt 0.015469 0.288952
vt 0.028492 0.445231
vt 0.371980 0.288950
vt 0.358957 0.288950
vt 0.028492 0.314999
vt 0.015469 0.314999
vt 0.371980 0.314997
vt 0.358957 0.314997
vt 0.028492 0.419184
vt 0.015469 0.419184
vt 0.865240 0.015461
vt 0.865240 0.028484
vt 0.854821 0.028484
vt 0.854821 0.015461
vt 0.865240 0.054530
vt 0.854821 0.054530
vt 0.865240 0.262902
vt 0.854821 0.262902
vt 0.880540 0.002446
vt 0.880540 0.028493
vt 0.870121 0.028493
vt 0.870121 0.002446
vt 0.880540 0.054539
vt 0.870121 0.054539
vt 0.880540 0.080585
vt 0.870121 0.080585
vt 0.880540 0.184771
vt 0.870121 0.184771
vt 0.880540 0.210818
vt 0.870121 0.210818
vt 0.880540 0.236864
vt 0.870121 0.236864
vt 0.880540 0.262910
vt 0.870121 0.262910
vt 0.885422 0.262910
vt 0.885422 0.054539
vt 0.895840 0.054539
vt 0.895840 0.262910
vt 0.885422 0.028493
vt 0.895840 0.028493
vt 0.900723 0.249887
vt 0.900723 0.236864
vt 0.911142 0.236864
vt 0.911142 0.249887
vt 0.900723 0.210818
vt 0.911142 0.210818
vt 0.900723 0.002446
vt 0.911142 0.002446
vt 0.926445 0.002446
vt 0.926445 0.028493
vt 0.916027 0.028493
vt 0.916027 0.002446
vt 0.926445 0.054539
vt 0.916027 0.054539
vt 0.926445 0.080585
vt 0.916027 0.080585
vt 0.926445 0.184771
vt 0.916027 0.184771
vt 0.926445 0.210818
vt 0.916027 0.210818
vt 0.926445 0.236864
vt 0.916027 0.236864
vt 0.926445 0.262910
vt 0.916027 0.262910
vt 0.931335 0.262903
vt 0.931335 0.054532
vt 0.941753 0.054532
vt 0.941753 0.262903
vt 0.931335 0.028485
vt 0.941753 0.028485
vt 0.585243 0.373159
vt 0.585243 0.341903
vt 0.595662 0.341903
vt 0.595662 0.373159
vt 0.043802 0.341905
vt 0.043802 0.373161
vt 0.033383 0.373161
vt 0.033383 0.341905
vt 0.376872 0.331485
vt 0.376872 0.383578
vt 0.252173 0.331487
vt 0.252173 0.383579
vt 0.043802 0.331487
vt 0.043802 0.383579
vt 0.585243 0.383578
vt 0.585243 0.331485
vt 0.931335 0.015462
vt 0.941753 0.015462
vt 0.015469 0.705695
vt 0.015469 0.497324
vt 0.015469 0.028488
vt 0.855471 0.298201
vt 0.803378 0.298201
vt 0.803378 0.285178
vt 0.855471 0.285178
vt 0.912451 0.298197
vt 0.860358 0.298197
vt 0.860358 0.285173
vt 0.912451 0.285173
vt 0.358957 0.028486
vt 0.358957 0.471275
vt 0.015469 0.471277
vt 0.358957 0.445229
vt 0.015469 0.445231
vt 0.358957 0.419182
vt 0.371980 0.419182
vt 0.885422 0.015469
vt 0.895840 0.015469
vt 0.002445 0.705695
vt 0.002445 0.497324
vt 0.741515 0.471274
vt 0.741515 0.679645
vt 0.689422 0.679645
vt 0.689422 0.471274
vt 0.746395 0.015469
vt 0.777651 0.015469
vt 0.777651 0.028492
vt 0.746395 0.028492
vt 0.741515 0.002438
vt 0.741515 0.210809
vt 0.689422 0.210809
vt 0.689422 0.002438
vt 0.782533 0.015460
vt 0.813789 0.015460
vt 0.813789 0.028483
vt 0.782533 0.028483
vt 0.777651 0.054539
vt 0.746395 0.054539
vt 0.813789 0.054530
vt 0.782533 0.054530
vt 0.777651 0.258597
vt 0.746395 0.258597
vt 0.813789 0.258588
vt 0.782533 0.258588
vt 0.002445 0.236859
vt 0.002445 0.028488
vt 0.803378 0.272155
vt 0.855471 0.272155
vt 0.860358 0.272150
vt 0.912451 0.272150
vt 0.345933 0.236857
vt 0.345933 0.028486
vt 0.977895 0.262782
vt 0.946640 0.262782
vt 0.946640 0.239788
vt 0.977895 0.239788
vt 0.345933 0.497321
vt 0.345933 0.471275
vt 0.689422 0.445227
vt 0.741515 0.445227
vt 0.948598 0.295146
vt 0.917342 0.295146
vt 0.917342 0.272152
vt 0.948598 0.272152
vt 0.002445 0.471277
vt 0.741515 0.236856
vt 0.689422 0.236856
vt 0.818678 0.002445
vt 0.849933 0.002445
vt 0.849933 0.025438
vt 0.818678 0.025438
vt 0.345933 0.445229
vt 0.689422 0.419181
vt 0.741515 0.419181
vt 0.849934 0.196084
vt 0.818678 0.196084
vt 0.818678 0.173090
vt 0.849933 0.173090
vt 0.002445 0.445231
vt 0.741515 0.262902
vt 0.689422 0.262902
vt 0.849933 0.047171
vt 0.818678 0.047171
vt 0.345933 0.419182
vt 0.689422 0.393134
vt 0.741515 0.393134
vt 0.818678 0.151357
vt 0.849933 0.151357
vt 0.002445 0.419184
vt 0.741515 0.288949
vt 0.689422 0.288949
vt 0.345933 0.314997
vt 0.885422 0.002446
vt 0.895840 0.002446
vt 0.931335 0.002439
vt 0.941753 0.002439
vt 0.947150 0.958755
vt 0.934127 0.958755
vt 0.934127 0.948337
vt 0.947150 0.948337
vt 0.908080 0.958755
vt 0.908080 0.948337
vt 0.699709 0.958755
vt 0.704022 0.948337
vt 0.673663 0.932709
vt 0.681029 0.925343
vt 0.647616 0.906662
vt 0.658035 0.902349
vt 0.647616 0.880616
vt 0.658035 0.880616
vt 0.647616 0.776430
vt 0.658035 0.776430
vt 0.647616 0.750384
vt 0.658035 0.754697
vt 0.673663 0.724337
vt 0.681029 0.731703
vt 0.699709 0.698291
vt 0.704022 0.708710
vt 0.908080 0.698291
vt 0.908080 0.708709
vt 0.934127 0.698291
vt 0.934127 0.708709
vt 0.947150 0.698291
vt 0.960173 0.698291
vt 0.960173 0.708709
vt 0.947150 0.708709
vt 0.698028 0.736060
vt 0.711052 0.736060
vt 0.711052 0.746478
vt 0.698028 0.746478
vt 0.737098 0.736060
vt 0.737098 0.746478
vt 0.945469 0.736060
vt 0.941156 0.746478
vt 0.971516 0.762106
vt 0.964150 0.769472
vt 0.997562 0.788153
vt 0.987144 0.792466
vt 0.997562 0.814199
vt 0.987144 0.814199
vt 0.997562 0.918385
vt 0.987144 0.918385
vt 0.997562 0.944431
vt 0.987144 0.940118
vt 0.971516 0.970478
vt 0.964150 0.963112
vt 0.945469 0.996524
vt 0.941156 0.986106
vt 0.737098 0.996524
vt 0.737098 0.986106
vt 0.711052 0.996524
vt 0.711052 0.986106
vt 0.698028 0.996524
vt 0.685005 0.996524
vt 0.685005 0.986106
vt 0.698028 0.986106
vt 0.345933 0.705693
vt 0.782533 0.002437
vt 0.813789 0.002437
vt 0.684537 0.028486
vt 0.684537 0.236857
vt 0.341049 0.497324
vt 0.341049 0.705695
vt 0.865240 0.002437
vt 0.854821 0.002437
vt 0.685005 0.736060
vt 0.685005 0.746478
vt 0.002445 0.262906
vt 0.345933 0.262904
vt 0.002445 0.288952
vt 0.345933 0.288950
vt 0.002445 0.314999
vt 0.946633 0.113870
vt 0.946633 0.061777
vt 0.960173 0.958755
vt 0.960173 0.948337
vt 0.900723 0.262910
vt 0.911142 0.262910
vt 0.684537 0.497321
vt 0.684537 0.705693
vt 0.946637 0.054533
vt 0.946637 0.002441
vt 0.341049 0.028488
vt 0.341049 0.236859
vt 0.746395 0.002446
vt 0.777651 0.002446
vn 0.0000 0.0000 -1.0000
vn 0.0000 0.0000 1.0000
vn -1.0000 0.0000 0.0000
vn 1.0000 0.0000 0.0000
vn 0.0000 1.0000 0.0000
vn 0.0000 -1.0000 0.0000
vn -0.7071 -0.7071 0.0000
vn 0.7071 -0.7071 0.0000
usemtl Asphalt10
s 1
f 87/1/1 53/2/1 185/3/1 186/4/1
f 189/5/2 190/6/2 11/7/2 12/8/2
f 194/9/3 189/10/3 12/11/3 19/12/3
f 168/13/4 167/14/4 23/15/4 24/16/4
f 167/17/1 166/18/1 26/19/1 23/20/1
f 193/21/1 194/22/1 19/23/1 20/24/1
f 12/8/2 11/7/2 158/25/2 33/26/2
f 38/27/3 39/28/3 40/29/3 41/30/3
f 42/31/4 43/32/4 44/33/4 45/34/4
f 163/35/2 168/36/2 24/37/2 32/38/2
f 23/20/1 26/19/1 46/39/1 47/40/1
f 12/8/2 33/26/2 40/41/2 39/42/2
f 52/43/5 53/44/5 54/45/5 55/46/5
f 36/47/1 19/23/1 38/48/1 41/49/1
f 19/50/6 12/51/6 39/52/6 38/53/6
f 24/54/6 23/55/6 43/56/6 42/57/6
f 23/20/1 47/40/1 44/58/1 43/59/1
f 56/60/5 57/61/5 58/62/5 59/63/5
f 50/64/2 24/37/2 42/65/2 45/66/2
f 20/24/1 19/23/1 36/47/1 37/67/1
f 36/47/1 41/49/1 64/68/1 62/69/1
f 41/30/3 40/29/3 65/70/3 64/71/3
f 40/41/2 33/26/2 159/72/2 65/73/2
f 50/64/2 45/66/2 66/74/2 67/75/2
f 45/34/4 44/33/4 68/76/4 66/77/4
f 44/58/1 47/40/1 69/78/1 68/79/1
f 32/38/2 24/37/2 50/64/2 51/80/2
f 47/40/1 46/39/1 70/81/1 69/78/1
f 37/67/1 36/47/1 62/69/1 63/82/1
f 159/72/2 160/83/2 74/84/2 75/85/2
f 62/69/1 64/68/1 78/86/1 76/87/1
f 64/71/3 65/70/3 79/88/3 78/89/3
f 65/73/2 159/72/2 75/85/2 79/90/2
f 67/75/2 66/74/2 80/91/2 81/92/2
f 66/77/4 68/76/4 82/93/4 80/94/4
f 68/79/1 69/78/1 83/95/1 82/96/1
f 51/80/2 50/64/2 67/75/2 73/97/2
f 69/78/1 70/81/1 84/98/1 83/95/1
f 63/82/1 62/69/1 76/87/1 77/99/1
f 75/85/2 74/84/2 86/100/2 52/101/2
f 76/87/1 78/86/1 54/102/1 53/2/1
f 78/89/3 79/88/3 55/103/3 54/104/3
f 79/90/2 75/85/2 52/101/2 55/105/2
f 81/92/2 80/91/2 58/106/2 57/107/2
f 80/94/4 82/93/4 59/108/4 58/109/4
f 82/96/1 83/95/1 56/110/1 59/111/1
f 73/97/2 67/75/2 81/92/2 85/112/2
f 83/95/1 84/98/1 88/113/1 56/110/1
f 77/99/1 76/87/1 53/2/1 87/1/1
f 85/112/2 81/92/2 57/107/2 89/114/2
f 63/82/1 77/99/1 92/115/1
f 77/99/1 87/1/1 93/116/1 92/115/1
f 187/117/2 86/100/2 96/118/2 179/119/2
f 86/100/2 74/84/2 97/120/2 96/118/2
f 74/84/2 160/83/2 97/120/2
f 73/97/2 85/112/2 100/121/2
f 85/112/2 89/114/2 101/122/2 100/121/2
f 182/123/1 88/113/1 104/124/1 177/125/1
f 88/113/1 84/98/1 105/126/1 104/124/1
f 84/98/1 70/81/1 105/126/1
f 92/115/1 93/116/1 108/127/1
f 179/119/2 96/118/2 111/128/2 175/129/2
f 96/118/2 97/120/2 111/128/2
f 100/121/2 101/122/2 114/130/2
f 177/125/1 104/124/1 117/131/1 173/132/1
f 104/124/1 105/126/1 117/131/1
f 175/129/2 111/128/2 123/133/2 171/134/2
f 173/132/1 117/131/1 129/135/1 169/136/1
f 171/134/2 123/133/2 127/137/2 170/138/2
f 163/139/3 32/140/3 130/141/3 162/142/3
f 32/140/3 51/143/3 132/144/3 130/141/3
f 51/143/3 73/145/3 133/146/3 132/144/3
f 73/147/7 100/148/7 134/149/7 133/150/7
f 100/148/7 114/151/7 135/152/7 134/149/7
f 114/151/6 127/153/6 136/154/6 135/152/6
f 127/153/6 123/155/6 137/156/6 136/154/6
f 123/155/6 111/157/6 138/158/6 137/156/6
f 111/157/8 97/159/8 139/160/8 138/158/8
f 97/159/8 160/161/8 140/162/8 139/160/8
f 160/163/4 158/164/4 141/165/4 140/166/4
f 158/164/4 11/167/4 142/168/4 141/165/4
f 193/169/4 20/170/4 144/171/4 196/172/4
f 20/170/4 37/173/4 146/174/4 144/171/4
f 37/173/4 63/175/4 147/176/4 146/174/4
f 63/177/8 92/178/8 148/179/8 147/180/8
f 92/178/8 108/181/8 149/182/8 148/179/8
f 108/181/6 121/183/6 150/184/6 149/182/6
f 121/183/6 129/185/6 151/186/6 150/184/6
f 129/185/6 117/187/6 152/188/6 151/186/6
f 117/187/7 105/189/7 153/190/7 152/188/7
f 105/189/7 70/191/7 154/192/7 153/190/7
f 70/193/3 46/194/3 155/195/3 154/196/3
f 46/194/3 26/197/3 156/198/3 155/195/3
f 143/199/6 145/200/6 14/201/6 13/202/6
f 157/203/6 131/204/6 28/205/6 27/206/6
f 18/207/6 145/200/6 143/199/6 9/208/6
f 157/203/6 22/209/6 21/210/6 131/204/6
f 157/203/6 25/211/6 22/209/6
f 21/210/6 31/212/6 131/204/6
f 143/199/6 10/213/6 9/208/6
f 18/207/6 17/214/6 145/200/6
f 26/197/3 166/215/3 161/216/3 156/198/3
f 89/114/2 57/107/2 184/217/2 181/218/2
f 52/101/2 86/100/2 187/117/2 188/219/2
f 53/220/3 52/221/3 188/222/3 185/223/3
f 57/224/4 56/225/4 183/226/4 184/227/4
f 56/110/1 88/113/1 182/123/1 183/228/1
f 87/1/1 186/4/1 180/229/1 93/116/1
f 89/114/2 181/218/2 178/230/2 101/122/2
f 93/116/1 180/229/1 176/231/1 108/127/1
f 101/122/2 178/230/2 174/232/2 114/130/2
f 108/127/1 176/231/1 172/233/1 121/234/1
f 114/130/2 174/232/2 170/138/2 127/137/2
f 121/234/1 172/233/1 169/136/1 129/135/1
f 33/26/2 158/25/2 160/83/2 159/72/2
f 11/167/4 190/235/4 195/236/4 142/168/4
usemtl Asphalt09
f 181/218/2 184/217/2 8/237/2 7/238/2
f 1/239/5 2/240/5 3/241/5 4/242/5
f 191/243/4 192/244/4 15/245/4 16/246/4
f 5/247/5 6/248/5 7/249/5 8/250/5
f 165/251/3 164/252/3 29/253/3 30/254/3
f 16/246/4 15/245/4 34/255/4 35/256/4
f 30/254/3 29/253/3 48/257/3 49/258/3
f 35/256/4 34/255/4 60/259/4 61/260/4
f 49/258/3 48/257/3 71/261/3 72/262/3
f 188/219/2 187/117/2 4/263/2 3/264/2
f 185/223/3 188/222/3 3/265/3 2/266/3
f 184/227/4 183/226/4 5/267/4 8/268/4
f 183/228/1 182/123/1 6/269/1 5/270/1
f 61/271/8 60/272/8 90/273/8 91/274/8
f 186/4/1 1/275/1 94/276/1 180/229/1
f 1/239/5 4/242/5 95/277/5 94/278/5
f 72/279/7 71/280/7 98/281/7 99/282/7
f 181/218/2 7/238/2 102/283/2 178/230/2
f 7/249/5 6/248/5 103/284/5 102/285/5
f 91/286/8 90/287/8 106/288/8 107/289/8
f 180/229/1 94/276/1 109/290/1 176/231/1
f 94/278/5 95/277/5 110/291/5 109/292/5
f 99/293/7 98/294/7 112/295/7 113/296/7
f 178/230/2 102/283/2 115/297/2 174/232/2
f 102/285/5 103/284/5 116/298/5 115/299/5
f 107/289/6 106/288/6 118/300/6 119/301/6
f 176/231/1 109/290/1 120/302/1 172/233/1
f 109/292/5 110/291/5 122/303/5 120/304/5
f 113/296/6 112/295/6 124/305/6 125/306/6
f 174/232/2 115/297/2 126/307/2 170/138/2
f 115/299/5 116/298/5 128/308/5 126/309/5
f 172/233/1 120/302/1 128/310/1 169/136/1
f 120/304/5 122/303/5 126/309/5 128/308/5
f 119/301/6 118/300/6 125/306/6 124/305/6
f 190/235/4 10/311/4 143/312/4 195/236/4
f 166/215/3 25/313/3 157/314/3 161/216/3
f 196/315/1 144/316/1 15/317/1 192/318/1
f 144/316/1 146/319/1 34/320/1 15/317/1
f 146/319/1 147/321/1 60/322/1 34/320/1
f 147/321/1 148/323/1 90/324/1 60/322/1
f 148/323/1 149/325/1 106/326/1 90/324/1
f 149/325/1 150/327/1 118/328/1 106/326/1
f 150/327/1 151/329/1 125/330/1 118/328/1
f 151/329/1 152/331/1 113/332/1 125/330/1
f 152/331/1 153/333/1 99/334/1 113/332/1
f 153/333/1 154/335/1 72/336/1 99/334/1
f 154/335/1 155/337/1 49/338/1 72/336/1
f 155/337/1 156/339/1 30/340/1 49/338/1
f 161/341/1 157/342/1 27/343/1 165/344/1
f 162/345/2 130/346/2 29/347/2 164/348/2
f 130/346/2 132/349/2 48/350/2 29/347/2
f 132/349/2 133/351/2 71/352/2 48/350/2
f 133/351/2 134/353/2 98/354/2 71/352/2
f 134/353/2 135/355/2 112/356/2 98/354/2
f 135/355/2 136/357/2 124/358/2 112/356/2
f 136/357/2 137/359/2 119/360/2 124/358/2
f 137/359/2 138/361/2 107/362/2 119/360/2
f 138/361/2 139/363/2 91/364/2 107/362/2
f 139/363/2 140/365/2 61/366/2 91/364/2
f 140/365/2 141/367/2 35/368/2 61/366/2
f 141/367/2 142/369/2 16/370/2 35/368/2
f 195/371/2 143/372/2 13/373/2 191/374/2
f 186/4/1 185/3/1 2/375/1 1/275/1
f 27/376/3 28/377/3 164/252/3 165/251/3
f 22/378/1 25/379/1 166/18/1 167/17/1
f 31/380/2 21/381/2 168/36/2 163/35/2
f 31/382/3 163/139/3 162/142/3 131/383/3
f 156/339/1 161/341/1 165/344/1 30/340/1
f 131/384/2 162/345/2 164/348/2 28/385/2
f 4/263/2 187/117/2 179/119/2 95/386/2
f 6/269/1 182/123/1 177/125/1 103/387/1
f 95/386/2 179/119/2 175/129/2 110/388/2
f 103/387/1 177/125/1 173/132/1 116/389/1
f 110/388/2 175/129/2 171/134/2 122/390/2
f 116/389/1 173/132/1 169/136/1 128/310/1
f 122/390/2 171/134/2 170/138/2 126/307/2
f 21/391/4 22/392/4 167/14/4 168/13/4
f 142/369/2 195/371/2 191/374/2 16/370/2
f 145/393/1 196/315/1 192/318/1 14/394/1
f 17/395/4 193/169/4 196/172/4 145/396/4
f 17/397/1 18/398/1 194/22/1 193/21/1
f 18/399/3 9/400/3 189/10/3 194/9/3
f 9/401/2 10/402/2 190/6/2 189/5/2
f 13/403/4 14/404/4 192/244/4 191/243/4
