# Blender v2.81 (sub 16) OBJ File: 'DungeonTilesPaint.blend'
# www.blender.org
mtllib Floor.mtl
o FloorPaint_Mesh.003
v -4.000000 -0.050000 4.000000
v -3.000000 -0.050000 4.000000
v -2.000000 -0.050000 4.000000
v -1.000000 -0.050000 4.000000
v 0.000000 -0.050000 4.000000
v 1.000000 -0.050000 4.000000
v 2.000000 -0.050000 4.000000
v 3.000000 -0.050000 4.000000
v 4.000000 -0.050000 4.000000
v -4.000000 -0.050000 3.000000
v -3.000000 -0.050000 3.000000
v -2.000000 -0.050000 3.000000
v -1.000000 -0.050000 3.000000
v 0.000000 -0.050000 3.000000
v 1.000000 -0.050000 3.000000
v 2.000000 -0.050000 3.000000
v 3.000000 -0.050000 3.000000
v 4.000000 -0.050000 3.000000
v -4.000000 -0.050000 2.000000
v -3.000000 -0.050000 2.000000
v -2.000000 -0.050000 2.000000
v -1.000000 -0.050000 2.000000
v 0.000000 -0.050000 2.000000
v 1.000000 -0.050000 2.000000
v 2.000000 -0.050000 2.000000
v 3.000000 -0.050000 2.000000
v 4.000000 -0.050000 2.000000
v -4.000000 -0.050000 1.000000
v -3.000000 -0.050000 1.000000
v -2.000000 -0.050000 1.000000
v -1.000000 -0.050000 1.000000
v 0.000000 -0.050000 1.000000
v 1.000000 -0.050000 1.000000
v 2.000000 -0.050000 1.000000
v 3.000000 -0.050000 1.000000
v 4.000000 -0.050000 1.000000
v -4.000000 -0.050000 0.000000
v -3.000000 -0.050000 0.000000
v -2.000000 -0.050000 0.000000
v -1.000000 -0.050000 0.000000
v -0.000000 -0.050000 -0.000000
v 1.000000 -0.050000 -0.000000
v 2.000000 -0.050000 -0.000000
v 3.000000 -0.050000 -0.000000
v 4.000000 -0.050000 -0.000000
v -4.000000 -0.050000 -1.000000
v -3.000000 -0.050000 -1.000000
v -2.000000 -0.050000 -1.000000
v 1.000000 -0.050000 -1.000000
v 2.000000 -0.050000 -1.000000
v 3.000000 -0.050000 -1.000000
v 4.000000 -0.050000 -1.000000
v -4.000000 -0.050000 -2.000000
v -3.000000 -0.050000 -2.000000
v -2.000000 -0.050000 -2.000000
v -1.000000 -0.050000 -2.000000
v -0.000000 -0.050000 -2.000000
v 1.000000 -0.050000 -2.000000
v 2.000000 -0.050000 -2.000000
v 3.000000 -0.050000 -2.000000
v 4.000000 -0.050000 -2.000000
v -4.000000 -0.050000 -3.000000
v -3.000000 -0.050000 -3.000000
v -2.000000 -0.050000 -3.000000
v -1.000000 -0.050000 -3.000000
v -0.000000 -0.050000 -3.000000
v 1.000000 -0.050000 -3.000000
v 2.000000 -0.050000 -3.000000
v 3.000000 -0.050000 -3.000000
v 4.000000 -0.050000 -3.000000
v -4.000000 -0.050000 -4.000000
v -3.000000 -0.050000 -4.000000
v -2.000000 -0.050000 -4.000000
v -1.000000 -0.050000 -4.000000
v -0.000000 -0.050000 -4.000000
v 1.000000 -0.050000 -4.000000
v 2.000000 -0.050000 -4.000000
v 3.000000 -0.050000 -4.000000
v 4.000000 -0.050000 -4.000000
v -4.000000 0.000000 4.000000
v -3.000000 0.000000 4.000000
v -2.000000 0.000000 4.000000
v -1.000000 0.000000 4.000000
v 0.000000 0.000000 4.000000
v 1.000000 0.000000 4.000000
v 2.000000 0.000000 4.000000
v 3.000000 0.000000 4.000000
v 4.000000 0.000000 4.000000
v -4.000000 0.000000 3.000000
v -3.000000 0.000000 3.000000
v -2.000000 0.000000 3.000000
v -1.000000 0.000000 3.000000
v 0.000000 0.000000 3.000000
v 1.000000 0.000000 3.000000
v 2.000000 0.000000 3.000000
v 3.000000 0.000000 3.000000
v 4.000000 0.000000 3.000000
v -4.000000 0.000000 2.000000
v -3.000000 0.000000 2.000000
v -2.000000 0.000000 2.000000
v -1.000000 0.000000 2.000000
v 0.000000 0.000000 2.000000
v 1.000000 0.000000 2.000000
v 2.000000 0.000000 2.000000
v 3.000000 0.000000 2.000000
v 4.000000 0.000000 2.000000
v -4.000000 0.000000 1.000000
v -3.000000 0.000000 1.000000
v -2.000000 0.000000 1.000000
v -1.000000 0.000000 1.000000
v 0.000000 0.000000 1.000000
v 1.000000 0.000000 1.000000
v 2.000000 0.000000 1.000000
v 3.000000 0.000000 1.000000
v 4.000000 0.000000 1.000000
v -4.000000 0.000000 0.000000
v -3.000000 0.000000 0.000000
v -2.000000 0.000000 0.000000
v -1.000000 0.000000 0.000000
v 0.000000 0.000000 0.000000
v 1.000000 0.000000 -0.000000
v 2.000000 0.000000 -0.000000
v 3.000000 0.000000 -0.000000
v 4.000000 0.000000 -0.000000
v -4.000000 0.000000 -1.000000
v -3.000000 0.000000 -1.000000
v -2.000000 0.000000 -1.000000
v -1.000000 0.000000 -1.000000
v -0.000000 0.000000 -1.000000
v 1.000000 0.000000 -1.000000
v 2.000000 0.000000 -1.000000
v 3.000000 0.000000 -1.000000
v 4.000000 0.000000 -1.000000
v -4.000000 0.000000 -2.000000
v -3.000000 0.000000 -2.000000
v -2.000000 0.000000 -2.000000
v -1.000000 0.000000 -2.000000
v -0.000000 0.000000 -2.000000
v 1.000000 0.000000 -2.000000
v 2.000000 0.000000 -2.000000
v 3.000000 0.000000 -2.000000
v 4.000000 0.000000 -2.000000
v -4.000000 0.000000 -3.000000
v -3.000000 0.000000 -3.000000
v -2.000000 0.000000 -3.000000
v -1.000000 0.000000 -3.000000
v -0.000000 0.000000 -3.000000
v 1.000000 0.000000 -3.000000
v 2.000000 0.000000 -3.000000
v 3.000000 0.000000 -3.000000
v 4.000000 0.000000 -3.000000
v -4.000000 0.000000 -4.000000
v -3.000000 0.000000 -4.000000
v -2.000000 0.000000 -4.000000
v -1.000000 0.000000 -4.000000
v -0.000000 0.000000 -4.000000
v 1.000000 0.000000 -4.000000
v 2.000000 0.000000 -4.000000
v 3.000000 0.000000 -4.000000
v 4.000000 0.000000 -4.000000
v -0.000000 -0.050000 -1.000000
v -1.000000 -0.050000 -1.000000
vt 0.020642 0.979358
vt 0.020642 0.922018
vt 0.077982 0.922018
vt 0.077982 0.979358
vt 0.020642 0.864679
vt 0.077982 0.864679
vt 0.020642 0.807339
vt 0.077982 0.807339
vt 0.020642 0.750000
vt 0.077982 0.750000
vt 0.020642 0.692661
vt 0.077982 0.692661
vt 0.020642 0.635321
vt 0.077982 0.635321
vt 0.020642 0.577982
vt 0.077982 0.577982
vt 0.020642 0.520642
vt 0.077982 0.520642
vt 0.135321 0.922018
vt 0.135321 0.979358
vt 0.135321 0.864679
vt 0.135321 0.807339
vt 0.135321 0.750000
vt 0.135321 0.692661
vt 0.135321 0.635321
vt 0.135321 0.577982
vt 0.135321 0.520642
vt 0.192661 0.922018
vt 0.192661 0.979358
vt 0.192661 0.864679
vt 0.192661 0.807339
vt 0.192661 0.750000
vt 0.192661 0.692661
vt 0.192661 0.635321
vt 0.192661 0.577982
vt 0.192661 0.520642
vt 0.250000 0.922018
vt 0.250000 0.979358
vt 0.250000 0.864679
vt 0.250000 0.807339
vt 0.250000 0.750000
vt 0.250000 0.692661
vt 0.250000 0.635321
vt 0.250000 0.577982
vt 0.250000 0.520642
vt 0.307339 0.922018
vt 0.307339 0.979358
vt 0.307339 0.864679
vt 0.307339 0.807339
vt 0.307339 0.750000
vt 0.307339 0.692661
vt 0.307339 0.635321
vt 0.307339 0.577982
vt 0.307339 0.520642
vt 0.364679 0.922018
vt 0.364679 0.979358
vt 0.364679 0.864679
vt 0.364679 0.807339
vt 0.364679 0.750000
vt 0.364679 0.692661
vt 0.364679 0.635321
vt 0.364679 0.577982
vt 0.364679 0.520642
vt 0.422018 0.922018
vt 0.422018 0.979358
vt 0.422018 0.864679
vt 0.422018 0.807339
vt 0.422018 0.750000
vt 0.422018 0.692661
vt 0.422018 0.635321
vt 0.422018 0.577982
vt 0.422018 0.520642
vt 0.479358 0.922018
vt 0.479358 0.979358
vt 0.479358 0.864679
vt 0.479358 0.807339
vt 0.479358 0.750000
vt 0.479358 0.692661
vt 0.479358 0.635321
vt 0.479358 0.577982
vt 0.479358 0.520642
vt 0.479358 0.479358
vt 0.422018 0.479358
vt 0.422018 0.422018
vt 0.479358 0.422018
vt 0.422018 0.364679
vt 0.479358 0.364679
vt 0.422018 0.307339
vt 0.479358 0.307339
vt 0.422018 0.250000
vt 0.479358 0.250000
vt 0.422018 0.192661
vt 0.479358 0.192661
vt 0.422018 0.135321
vt 0.479358 0.135321
vt 0.422018 0.077982
vt 0.479358 0.077982
vt 0.422018 0.020642
vt 0.479358 0.020642
vt 0.364679 0.479358
vt 0.364679 0.422018
vt 0.364679 0.364679
vt 0.364679 0.307339
vt 0.364679 0.250000
vt 0.364679 0.192661
vt 0.364679 0.135321
vt 0.364679 0.077982
vt 0.364679 0.020642
vt 0.307339 0.479358
vt 0.307339 0.422018
vt 0.307339 0.364679
vt 0.307339 0.307339
vt 0.307339 0.250000
vt 0.307339 0.192661
vt 0.307339 0.135321
vt 0.307339 0.077982
vt 0.307339 0.020642
vt 0.250000 0.479358
vt 0.250000 0.422018
vt 0.250000 0.364679
vt 0.250000 0.307339
vt 0.250000 0.250000
vt 0.250000 0.192661
vt 0.250000 0.135321
vt 0.250000 0.077982
vt 0.250000 0.020642
vt 0.192661 0.479358
vt 0.192661 0.422018
vt 0.192661 0.364679
vt 0.192661 0.192661
vt 0.192661 0.135321
vt 0.192661 0.077982
vt 0.192661 0.020642
vt 0.135321 0.479358
vt 0.135321 0.422018
vt 0.135321 0.364679
vt 0.135321 0.192661
vt 0.135321 0.135321
vt 0.135321 0.077982
vt 0.135321 0.020642
vt 0.077982 0.479358
vt 0.077982 0.422018
vt 0.077982 0.364679
vt 0.077982 0.307339
vt 0.135321 0.307339
vt 0.077982 0.250000
vt 0.135321 0.250000
vt 0.077982 0.192661
vt 0.077982 0.135321
vt 0.077982 0.077982
vt 0.077982 0.020642
vt 0.020642 0.479358
vt 0.020642 0.422018
vt 0.020642 0.364679
vt 0.020642 0.307339
vt 0.020642 0.250000
vt 0.020642 0.192661
vt 0.020642 0.135321
vt 0.020642 0.077982
vt 0.020642 0.020642
vt 0.506379 0.479358
vt 0.506379 0.422018
vt 0.509246 0.422018
vt 0.509246 0.479358
vt 0.506379 0.364679
vt 0.509246 0.364679
vt 0.506379 0.307339
vt 0.509246 0.307339
vt 0.506379 0.250000
vt 0.509246 0.250000
vt 0.506379 0.192661
vt 0.509246 0.192661
vt 0.506379 0.135321
vt 0.509246 0.135321
vt 0.506379 0.077982
vt 0.509246 0.077982
vt 0.506379 0.020642
vt 0.509246 0.020642
vt 0.502996 0.020642
vt 0.502996 0.077982
vt 0.500129 0.077982
vt 0.500129 0.020642
vt 0.502996 0.135321
vt 0.500129 0.135321
vt 0.502996 0.192661
vt 0.500129 0.192661
vt 0.502996 0.250000
vt 0.500129 0.250000
vt 0.502996 0.307339
vt 0.500129 0.307339
vt 0.502996 0.364679
vt 0.500129 0.364679
vt 0.502996 0.422018
vt 0.500129 0.422018
vt 0.502996 0.479358
vt 0.500129 0.479358
vt 0.506121 0.020642
vt 0.506121 0.077982
vt 0.503254 0.077982
vt 0.503254 0.020642
vt 0.506121 0.135321
vt 0.503254 0.135321
vt 0.506121 0.192661
vt 0.503254 0.192661
vt 0.506121 0.250000
vt 0.503254 0.250000
vt 0.506121 0.307339
vt 0.503254 0.307339
vt 0.506121 0.364679
vt 0.503254 0.364679
vt 0.506121 0.422018
vt 0.503254 0.422018
vt 0.506121 0.479358
vt 0.503254 0.479358
vt 0.512371 0.020642
vt 0.512371 0.077982
vt 0.509504 0.077982
vt 0.509504 0.020642
vt 0.512371 0.135321
vt 0.509504 0.135321
vt 0.512371 0.192661
vt 0.509504 0.192661
vt 0.512371 0.250000
vt 0.509504 0.250000
vt 0.512371 0.307339
vt 0.509504 0.307339
vt 0.512371 0.364679
vt 0.509504 0.364679
vt 0.512371 0.422018
vt 0.509504 0.422018
vt 0.512371 0.479358
vt 0.509504 0.479358
vt 0.192661 0.250000
vt 0.192661 0.307339
vn 0.0000 1.0000 0.0000
vn 0.0000 -1.0000 0.0000
vn 0.0000 0.0000 1.0000
vn 1.0000 0.0000 -0.0000
vn -0.0000 0.0000 -1.0000
vn -1.0000 0.0000 0.0000
usemtl Tiles17
s 1
f 80/1/1 81/2/1 90/3/1 89/4/1
f 81/2/1 82/5/1 91/6/1 90/3/1
f 82/5/1 83/7/1 92/8/1 91/6/1
f 83/7/1 84/9/1 93/10/1 92/8/1
f 84/9/1 85/11/1 94/12/1 93/10/1
f 85/11/1 86/13/1 95/14/1 94/12/1
f 86/13/1 87/15/1 96/16/1 95/14/1
f 87/15/1 88/17/1 97/18/1 96/16/1
f 89/4/1 90/3/1 99/19/1 98/20/1
f 90/3/1 91/6/1 100/21/1 99/19/1
f 91/6/1 92/8/1 101/22/1 100/21/1
f 92/8/1 93/10/1 102/23/1 101/22/1
f 93/10/1 94/12/1 103/24/1 102/23/1
f 94/12/1 95/14/1 104/25/1 103/24/1
f 95/14/1 96/16/1 105/26/1 104/25/1
f 96/16/1 97/18/1 106/27/1 105/26/1
f 98/20/1 99/19/1 108/28/1 107/29/1
f 99/19/1 100/21/1 109/30/1 108/28/1
f 100/21/1 101/22/1 110/31/1 109/30/1
f 101/22/1 102/23/1 111/32/1 110/31/1
f 102/23/1 103/24/1 112/33/1 111/32/1
f 103/24/1 104/25/1 113/34/1 112/33/1
f 104/25/1 105/26/1 114/35/1 113/34/1
f 105/26/1 106/27/1 115/36/1 114/35/1
f 107/29/1 108/28/1 117/37/1 116/38/1
f 108/28/1 109/30/1 118/39/1 117/37/1
f 109/30/1 110/31/1 119/40/1 118/39/1
f 110/31/1 111/32/1 120/41/1 119/40/1
f 111/32/1 112/33/1 121/42/1 120/41/1
f 112/33/1 113/34/1 122/43/1 121/42/1
f 113/34/1 114/35/1 123/44/1 122/43/1
f 114/35/1 115/36/1 124/45/1 123/44/1
f 116/38/1 117/37/1 126/46/1 125/47/1
f 117/37/1 118/39/1 127/48/1 126/46/1
f 118/39/1 119/40/1 128/49/1 127/48/1
f 119/40/1 120/41/1 129/50/1 128/49/1
f 120/41/1 121/42/1 130/51/1 129/50/1
f 121/42/1 122/43/1 131/52/1 130/51/1
f 122/43/1 123/44/1 132/53/1 131/52/1
f 123/44/1 124/45/1 133/54/1 132/53/1
f 125/47/1 126/46/1 135/55/1 134/56/1
f 126/46/1 127/48/1 136/57/1 135/55/1
f 127/48/1 128/49/1 137/58/1 136/57/1
f 128/49/1 129/50/1 138/59/1 137/58/1
f 129/50/1 130/51/1 139/60/1 138/59/1
f 130/51/1 131/52/1 140/61/1 139/60/1
f 131/52/1 132/53/1 141/62/1 140/61/1
f 132/53/1 133/54/1 142/63/1 141/62/1
f 134/56/1 135/55/1 144/64/1 143/65/1
f 135/55/1 136/57/1 145/66/1 144/64/1
f 136/57/1 137/58/1 146/67/1 145/66/1
f 137/58/1 138/59/1 147/68/1 146/67/1
f 138/59/1 139/60/1 148/69/1 147/68/1
f 139/60/1 140/61/1 149/70/1 148/69/1
f 140/61/1 141/62/1 150/71/1 149/70/1
f 141/62/1 142/63/1 151/72/1 150/71/1
f 143/65/1 144/64/1 153/73/1 152/74/1
f 144/64/1 145/66/1 154/75/1 153/73/1
f 145/66/1 146/67/1 155/76/1 154/75/1
f 146/67/1 147/68/1 156/77/1 155/76/1
f 147/68/1 148/69/1 157/78/1 156/77/1
f 148/69/1 149/70/1 158/79/1 157/78/1
f 149/70/1 150/71/1 159/80/1 158/79/1
f 150/71/1 151/72/1 160/81/1 159/80/1
usemtl Concrete14
f 1/82/2 10/83/2 11/84/2 2/85/2
f 2/85/2 11/84/2 12/86/2 3/87/2
f 3/87/2 12/86/2 13/88/2 4/89/2
f 4/89/2 13/88/2 14/90/2 5/91/2
f 5/91/2 14/90/2 15/92/2 6/93/2
f 6/93/2 15/92/2 16/94/2 7/95/2
f 7/95/2 16/94/2 17/96/2 8/97/2
f 8/97/2 17/96/2 18/98/2 9/99/2
f 10/83/2 19/100/2 20/101/2 11/84/2
f 11/84/2 20/101/2 21/102/2 12/86/2
f 12/86/2 21/102/2 22/103/2 13/88/2
f 13/88/2 22/103/2 23/104/2 14/90/2
f 14/90/2 23/104/2 24/105/2 15/92/2
f 15/92/2 24/105/2 25/106/2 16/94/2
f 16/94/2 25/106/2 26/107/2 17/96/2
f 17/96/2 26/107/2 27/108/2 18/98/2
f 19/100/2 28/109/2 29/110/2 20/101/2
f 20/101/2 29/110/2 30/111/2 21/102/2
f 21/102/2 30/111/2 31/112/2 22/103/2
f 22/103/2 31/112/2 32/113/2 23/104/2
f 23/104/2 32/113/2 33/114/2 24/105/2
f 24/105/2 33/114/2 34/115/2 25/106/2
f 25/106/2 34/115/2 35/116/2 26/107/2
f 26/107/2 35/116/2 36/117/2 27/108/2
f 28/109/2 37/118/2 38/119/2 29/110/2
f 29/110/2 38/119/2 39/120/2 30/111/2
f 30/111/2 39/120/2 40/121/2 31/112/2
f 31/112/2 40/121/2 41/122/2 32/113/2
f 32/113/2 41/122/2 42/123/2 33/114/2
f 33/114/2 42/123/2 43/124/2 34/115/2
f 34/115/2 43/124/2 44/125/2 35/116/2
f 35/116/2 44/125/2 45/126/2 36/117/2
f 37/118/2 46/127/2 47/128/2 38/119/2
f 38/119/2 47/128/2 48/129/2 39/120/2
f 42/123/2 49/130/2 50/131/2 43/124/2
f 43/124/2 50/131/2 51/132/2 44/125/2
f 44/125/2 51/132/2 52/133/2 45/126/2
f 46/127/2 53/134/2 54/135/2 47/128/2
f 47/128/2 54/135/2 55/136/2 48/129/2
f 49/130/2 58/137/2 59/138/2 50/131/2
f 50/131/2 59/138/2 60/139/2 51/132/2
f 51/132/2 60/139/2 61/140/2 52/133/2
f 53/134/2 62/141/2 63/142/2 54/135/2
f 54/135/2 63/142/2 64/143/2 55/136/2
f 55/136/2 64/143/2 65/144/2 56/145/2
f 56/145/2 65/144/2 66/146/2 57/147/2
f 57/147/2 66/146/2 67/148/2 58/137/2
f 58/137/2 67/148/2 68/149/2 59/138/2
f 59/138/2 68/149/2 69/150/2 60/139/2
f 60/139/2 69/150/2 70/151/2 61/140/2
f 62/141/2 71/152/2 72/153/2 63/142/2
f 63/142/2 72/153/2 73/154/2 64/143/2
f 64/143/2 73/154/2 74/155/2 65/144/2
f 65/144/2 74/155/2 75/156/2 66/146/2
f 66/146/2 75/156/2 76/157/2 67/148/2
f 67/148/2 76/157/2 77/158/2 68/149/2
f 68/149/2 77/158/2 78/159/2 69/150/2
f 69/150/2 78/159/2 79/160/2 70/151/2
f 1/161/3 2/162/3 81/163/3 80/164/3
f 2/162/3 3/165/3 82/166/3 81/163/3
f 3/165/3 4/167/3 83/168/3 82/166/3
f 4/167/3 5/169/3 84/170/3 83/168/3
f 5/169/3 6/171/3 85/172/3 84/170/3
f 6/171/3 7/173/3 86/174/3 85/172/3
f 7/173/3 8/175/3 87/176/3 86/174/3
f 8/175/3 9/177/3 88/178/3 87/176/3
f 9/179/4 18/180/4 97/181/4 88/182/4
f 18/180/4 27/183/4 106/184/4 97/181/4
f 27/183/4 36/185/4 115/186/4 106/184/4
f 36/185/4 45/187/4 124/188/4 115/186/4
f 45/187/4 52/189/4 133/190/4 124/188/4
f 52/189/4 61/191/4 142/192/4 133/190/4
f 61/191/4 70/193/4 151/194/4 142/192/4
f 70/193/4 79/195/4 160/196/4 151/194/4
f 79/197/5 78/198/5 159/199/5 160/200/5
f 78/198/5 77/201/5 158/202/5 159/199/5
f 77/201/5 76/203/5 157/204/5 158/202/5
f 76/203/5 75/205/5 156/206/5 157/204/5
f 75/205/5 74/207/5 155/208/5 156/206/5
f 74/207/5 73/209/5 154/210/5 155/208/5
f 73/209/5 72/211/5 153/212/5 154/210/5
f 72/211/5 71/213/5 152/214/5 153/212/5
f 71/215/6 62/216/6 143/217/6 152/218/6
f 62/216/6 53/219/6 134/220/6 143/217/6
f 53/219/6 46/221/6 125/222/6 134/220/6
f 46/221/6 37/223/6 116/224/6 125/222/6
f 37/223/6 28/225/6 107/226/6 116/224/6
f 28/225/6 19/227/6 98/228/6 107/226/6
f 19/227/6 10/229/6 89/230/6 98/228/6
f 10/229/6 1/231/6 80/232/6 89/230/6
f 41/122/2 161/233/2 49/130/2 42/123/2
f 161/233/2 57/147/2 58/137/2 49/130/2
f 40/121/2 162/234/2 161/233/2 41/122/2
f 162/234/2 56/145/2 57/147/2 161/233/2
f 39/120/2 48/129/2 162/234/2 40/121/2
f 48/129/2 55/136/2 56/145/2 162/234/2
