# Blender v2.81 (sub 16) OBJ File: 'DungeonTilesPaint.blend'
# www.blender.org
mtllib Pillar.mtl
o PillarPaint_Mesh.006
v 0.000000 0.000000 0.000000
v 0.000000 0.000000 1.000000
v 1.000000 0.000000 -0.000000
v 0.750000 0.000000 1.000000
v 0.000000 3.250000 0.000000
v 0.000000 0.250000 1.000000
v 1.000000 0.250000 -0.000000
v 1.000000 0.250000 0.750000
v 0.000000 0.250000 0.750000
v 0.750000 0.250000 -0.000000
v 0.000000 3.000000 0.750000
v 0.750000 3.000000 0.500000
v 0.750000 3.000000 -0.000000
v 0.000000 3.250000 1.000000
v 0.750000 3.250000 1.000000
v 1.000000 3.250000 -0.000000
v 0.000000 3.000000 1.000000
v 1.000000 3.000000 -0.000000
v 0.000000 0.250000 0.000000
v 0.000000 3.000000 0.000000
v 0.750000 0.250000 0.500000
v 0.500000 0.250000 0.750000
v 1.000000 3.000000 0.750000
v 0.500000 3.000000 0.750000
v 1.000000 0.000000 0.750000
v 0.750000 0.250000 1.000000
v 1.000000 3.250000 0.750000
v 0.750000 3.000000 1.000000
v 0.000000 3.125000 0.875000
v 0.000000 0.125000 0.875000
v 0.875000 3.125000 -0.000000
v 0.875000 0.125000 -0.000000
v 0.000000 3.125000 0.000000
v 0.000000 0.125000 0.000000
v 0.000000 3.125000 1.000000
v 0.750000 3.125000 1.000000
v 1.000000 3.125000 -0.000000
v 1.000000 3.125000 0.750000
v 0.000000 0.125000 1.000000
v 0.750000 0.125000 1.000000
v 1.000000 0.125000 -0.000000
v 1.000000 0.125000 0.750000
vt 0.723595 0.465773
vt 0.723595 0.382720
vt 0.737437 0.382720
vt 0.737437 0.465773
vt 0.057494 0.775166
vt 0.112417 0.830090
vt 0.075801 0.830090
vt 0.039186 0.793474
vt 0.112417 0.866705
vt 0.057494 0.921629
vt 0.039186 0.903321
vt 0.075801 0.866705
vt 0.467316 0.141236
vt 0.523157 0.141236
vt 0.523157 0.448359
vt 0.467316 0.448359
vt 0.669087 0.437199
vt 0.617304 0.437199
vt 0.617304 0.152397
vt 0.669087 0.152397
vt 0.723595 0.355036
vt 0.737437 0.355036
vt 0.735981 0.206526
vt 0.772596 0.169910
vt 0.809212 0.169910
vt 0.754289 0.224834
vt 0.772596 0.133295
vt 0.735981 0.096679
vt 0.754289 0.078371
vt 0.809212 0.133295
vt 0.295707 0.490799
vt 0.295707 0.205996
vt 0.373380 0.205996
vt 0.373380 0.490799
vt 0.269816 0.193051
vt 0.282761 0.193051
vt 0.269816 0.205996
vt 0.055417 0.205996
vt 0.133090 0.205996
vt 0.133090 0.490799
vt 0.055417 0.490799
vt 0.158982 0.503744
vt 0.146036 0.503744
vt 0.158982 0.490799
vt 0.551077 0.141236
vt 0.551077 0.448359
vt 0.178402 0.816031
vt 0.178402 0.738358
vt 0.191348 0.738358
vt 0.191348 0.816031
vt 0.373380 0.193051
vt 0.055417 0.193051
vt 0.146036 0.193051
vt 0.791037 0.438089
vt 0.791037 0.465773
vt 0.777195 0.465773
vt 0.777195 0.438089
vt 0.244948 0.738358
vt 0.244948 0.816031
vt 0.232002 0.816031
vt 0.232002 0.738358
vt 0.158981 0.205996
vt 0.158981 0.193051
vt 0.791037 0.355036
vt 0.777195 0.355036
vt 0.373380 0.503744
vt 0.282761 0.503744
vt 0.055417 0.503744
vt 0.269816 0.490799
vt 0.269816 0.503744
vt 0.724504 0.645013
vt 0.802177 0.645013
vt 0.802177 0.748577
vt 0.698612 0.748577
vt 0.698612 0.670904
vt 0.510105 0.645013
vt 0.587779 0.645013
vt 0.587779 0.748577
vt 0.484214 0.748577
vt 0.484214 0.670904
vt 0.763353 0.438089
vt 0.763353 0.355036
vt 0.269816 0.180105
vt 0.373380 0.180105
vt 0.373380 0.516690
vt 0.269816 0.516690
vt 0.055417 0.180105
vt 0.158981 0.180105
vt 0.158982 0.516690
vt 0.055417 0.516690
vt 0.219056 0.816031
vt 0.219056 0.738358
vt 0.763353 0.465773
vt 0.165457 0.816031
vt 0.165457 0.738358
vt 0.709753 0.382720
vt 0.709753 0.355036
vt 0.709753 0.465773
vn 0.0000 0.0000 1.0000
vn 0.0000 1.0000 0.0000
vn 1.0000 0.0000 -0.0000
vn 0.7071 0.0000 0.7071
vn 0.0000 -1.0000 0.0000
vn -1.0000 0.0000 0.0000
vn -0.0000 0.0000 -1.0000
usemtl DarkStone5
s 1
f 39/1/1 40/2/1 26/3/1 6/4/1
f 6/5/2 26/6/2 22/7/2 9/8/2
f 8/9/2 7/10/2 10/11/2 21/12/2
f 9/13/1 22/14/1 24/15/1 11/16/1
f 21/17/3 10/18/3 13/19/3 12/20/3
f 40/2/4 42/21/4 8/22/4 26/3/4
f 11/23/5 24/24/5 28/25/5 17/26/5
f 12/27/5 13/28/5 18/29/5 23/30/5
f 9/31/6 11/32/6 20/33/6 19/34/6
f 35/35/6 29/36/6 11/32/6 17/37/6
f 20/38/7 13/39/7 10/40/7 19/41/7
f 41/42/7 32/43/7 10/40/7 7/44/7
f 8/9/2 21/12/2 22/7/2 26/6/2
f 12/27/5 23/30/5 28/25/5 24/24/5
f 22/14/4 21/45/4 12/46/4 24/15/4
f 42/47/3 41/48/3 7/49/3 8/50/3
f 11/32/6 29/36/6 33/51/6 20/33/6
f 13/39/7 20/38/7 33/52/7 31/53/7
f 28/54/4 23/55/4 38/56/4 36/57/4
f 23/58/3 18/59/3 37/60/3 38/61/3
f 18/62/7 13/39/7 31/53/7 37/63/7
f 17/64/1 28/54/1 36/57/1 35/65/1
f 9/31/6 19/34/6 34/66/6 30/67/6
f 10/40/7 32/43/7 34/68/7 19/41/7
f 6/69/6 9/31/6 30/67/6 39/70/6
usemtl LightStone5
f 4/71/5 2/72/5 1/73/5 3/74/5 25/75/5
f 27/76/2 16/77/2 5/78/2 14/79/2 15/80/2
f 35/65/1 36/57/1 15/81/1 14/82/1
f 29/36/6 14/83/6 5/84/6 33/51/6
f 30/67/6 34/66/6 1/85/6 2/86/6
f 39/70/6 30/67/6 2/86/6
f 31/53/7 33/52/7 5/87/7 16/88/7
f 37/63/7 31/53/7 16/88/7
f 32/43/7 3/89/7 1/90/7 34/68/7
f 38/61/3 37/60/3 16/91/3 27/92/3
f 36/57/4 38/56/4 27/93/4 15/81/4
f 14/83/6 29/36/6 35/35/6
f 25/94/3 3/95/3 41/48/3 42/47/3
f 3/89/7 32/43/7 41/42/7
f 4/96/4 25/97/4 42/21/4 40/2/4
f 2/98/1 4/96/1 40/2/1 39/1/1
