# Blender v2.81 (sub 16) OBJ File: 'DungeonTilesPaint.blend'
# www.blender.org
mtllib Wall.mtl
o WallPaint_Wall.001
v -3.000000 3.250000 0.000000
v -3.000000 3.250000 0.500000
v -2.000000 3.250000 0.500000
v -2.000000 3.250000 0.000000
v -1.000000 3.250000 0.500000
v -1.000000 3.250000 0.000000
v 0.000000 3.250000 0.500000
v 0.000000 3.250000 0.000000
v 1.000000 3.250000 0.500000
v 1.000000 3.250000 -0.000000
v 2.000000 3.250000 0.500000
v 2.000000 3.250000 -0.000000
v 3.000000 3.250000 0.500000
v 3.000000 3.250000 -0.000000
v -3.000000 0.000000 0.750000
v -2.000000 0.000000 0.750000
v -2.000000 0.250000 0.750000
v -3.000000 0.250000 0.750000
v -1.000000 0.000000 0.750000
v -1.000000 0.250000 0.750000
v 0.000000 0.000000 0.750000
v 0.000000 0.250000 0.750000
v 1.000000 0.000000 0.750000
v 1.000000 0.250000 0.750000
v 2.000000 0.000000 0.750000
v 2.000000 0.250000 0.750000
v 3.000000 0.000000 0.750000
v 3.000000 0.250000 0.750000
v 3.000000 0.000000 -0.000000
v 2.000000 0.000000 -0.000000
v 2.000000 0.250000 -0.000000
v 3.000000 0.250000 -0.000000
v 1.000000 0.000000 -0.000000
v 1.000000 0.250000 -0.000000
v 0.000000 0.000000 0.000000
v 0.000000 0.250000 0.000000
v -1.000000 0.000000 0.000000
v -1.000000 0.250000 0.000000
v -2.000000 0.000000 0.000000
v -2.000000 0.250000 0.000000
v -3.000000 0.000000 0.000000
v -3.000000 0.250000 0.000000
v 3.000000 0.250000 0.500000
v 3.250000 0.250000 0.500000
v 3.250000 3.000000 0.500000
v 3.000000 3.000000 0.500000
v 3.250000 0.250000 -0.000000
v 3.000000 3.000000 -0.000000
v 3.250000 3.000000 -0.000000
v 2.000000 3.000000 -0.000000
v 1.000000 3.000000 -0.000000
v 0.000000 3.000000 0.000000
v -1.000000 3.000000 0.000000
v -2.000000 3.000000 0.000000
v -3.000000 3.000000 0.000000
v -3.250000 0.250000 0.000000
v -3.250000 3.000000 0.000000
v -3.250000 0.250000 0.500000
v -3.000000 0.250000 0.500000
v -3.000000 3.000000 0.500000
v -3.250000 3.000000 0.500000
v -2.000000 0.250000 0.500000
v -2.000000 3.000000 0.500000
v -1.000000 0.250000 0.500000
v -1.000000 3.000000 0.500000
v 0.000000 0.250000 0.500000
v 0.000000 3.000000 0.500000
v 1.000000 0.250000 0.500000
v 1.000000 3.000000 0.500000
v 2.000000 0.250000 0.500000
v 2.000000 3.000000 0.500000
v -3.000000 3.000000 0.750000
v -2.000000 3.000000 0.750000
v -2.000000 3.250000 0.750000
v -3.000000 3.250000 0.750000
v -1.000000 3.000000 0.750000
v -1.000000 3.250000 0.750000
v 0.000000 3.000000 0.750000
v 0.000000 3.250000 0.750000
v 1.000000 3.000000 0.750000
v 1.000000 3.250000 0.750000
v 2.000000 3.000000 0.750000
v 2.000000 3.250000 0.750000
v 3.000000 3.000000 0.750000
v 3.000000 3.250000 0.750000
v -2.000000 0.000000 0.500000
v -3.000000 0.000000 0.500000
v -1.000000 0.000000 0.500000
v 0.000000 0.000000 0.500000
v 1.000000 0.000000 0.500000
v 2.000000 0.000000 0.500000
v 3.000000 0.000000 0.500000
v 3.000000 3.125000 -0.000000
v 2.000000 3.125000 -0.000000
v 1.000000 3.125000 -0.000000
v 0.000000 3.125000 0.000000
v -1.000000 3.125000 0.000000
v -2.000000 3.125000 0.000000
v -3.000000 3.125000 0.000000
v -3.000000 3.125000 0.750000
v -2.000000 3.125000 0.750000
v -1.000000 3.125000 0.750000
v 0.000000 3.125000 0.750000
v 1.000000 3.125000 0.750000
v 2.000000 3.125000 0.750000
v 3.000000 3.125000 0.750000
v 3.000000 3.125000 0.500000
v -3.000000 3.125000 0.500000
v -3.000000 0.125000 0.750000
v -2.000000 0.125000 0.750000
v -1.000000 0.125000 0.750000
v 0.000000 0.125000 0.750000
v 1.000000 0.125000 0.750000
v 2.000000 0.125000 0.750000
v 3.000000 0.125000 0.750000
v 3.000000 0.125000 -0.000000
v 2.000000 0.125000 -0.000000
v 1.000000 0.125000 -0.000000
v 0.000000 0.125000 0.000000
v -1.000000 0.125000 0.000000
v -2.000000 0.125000 0.000000
v -3.000000 0.125000 0.000000
v 3.000000 0.125000 0.500000
v -3.000000 0.125000 0.500000
vt 0.853605 0.657405
vt 0.801180 0.657405
vt 0.801180 0.552556
vt 0.853605 0.552556
vt 0.801180 0.447706
vt 0.853605 0.447706
vt 0.801180 0.342857
vt 0.853605 0.342857
vt 0.801180 0.238008
vt 0.853605 0.238008
vt 0.801180 0.133159
vt 0.853605 0.133159
vt 0.801180 0.028309
vt 0.853605 0.028309
vt 0.028440 0.056881
vt 0.028440 0.161730
vt 0.015334 0.161730
vt 0.015334 0.056881
vt 0.028440 0.266579
vt 0.015334 0.266579
vt 0.028440 0.371429
vt 0.015334 0.371429
vt 0.028440 0.476278
vt 0.015334 0.476278
vt 0.028440 0.581127
vt 0.015334 0.581127
vt 0.028440 0.685977
vt 0.015334 0.685977
vt 0.871429 0.028309
vt 0.871429 0.133159
vt 0.858323 0.133159
vt 0.858323 0.028309
vt 0.871429 0.238008
vt 0.858323 0.238008
vt 0.871429 0.342857
vt 0.858323 0.342857
vt 0.871429 0.447706
vt 0.858323 0.447706
vt 0.871429 0.552556
vt 0.858323 0.552556
vt 0.871429 0.657405
vt 0.858323 0.657405
vt 0.715466 0.133159
vt 0.715466 0.028309
vt 0.767890 0.028309
vt 0.767890 0.133159
vt 0.715466 0.238008
vt 0.767890 0.238008
vt 0.715466 0.342857
vt 0.767890 0.342857
vt 0.715466 0.447706
vt 0.767890 0.447706
vt 0.715466 0.552556
vt 0.767890 0.552556
vt 0.715466 0.657405
vt 0.767890 0.657405
vt 0.042857 0.772608
vt 0.042857 0.825033
vt 0.029751 0.825033
vt 0.029751 0.772608
vt 0.100000 0.772608
vt 0.113106 0.772608
vt 0.113106 0.825033
vt 0.100000 0.825033
vt 0.689253 0.238008
vt 0.689253 0.133159
vt 0.689253 0.342857
vt 0.689253 0.447706
vt 0.689253 0.552556
vt 0.689253 0.657405
vt 0.029751 0.746396
vt 0.042857 0.746396
vt 0.689253 0.028309
vt 0.071429 0.772608
vt 0.058322 0.772608
vt 0.058322 0.746396
vt 0.071429 0.746396
vt 0.774968 0.133159
vt 0.774968 0.028309
vt 0.774968 0.238008
vt 0.774968 0.342857
vt 0.774968 0.447706
vt 0.774968 0.552556
vt 0.774968 0.657405
vt 0.100000 0.746396
vt 0.113106 0.746396
vt 0.071429 0.825033
vt 0.058322 0.825033
vt 0.001180 0.798821
vt 0.014286 0.798821
vt 0.014286 0.825033
vt 0.001180 0.825033
vt 0.001180 0.746396
vt 0.014286 0.746396
vt 0.356094 0.581127
vt 0.356094 0.685976
vt 0.342988 0.685976
vt 0.342988 0.581127
vt 0.356094 0.476278
vt 0.342988 0.476278
vt 0.356094 0.371429
vt 0.342988 0.371429
vt 0.356094 0.266579
vt 0.342988 0.266579
vt 0.356094 0.161730
vt 0.342988 0.161730
vt 0.356094 0.056881
vt 0.342988 0.056881
vt 0.913107 0.552556
vt 0.913107 0.657405
vt 0.900001 0.657405
vt 0.900001 0.552556
vt 0.913107 0.447706
vt 0.900001 0.447706
vt 0.913107 0.342857
vt 0.900001 0.342857
vt 0.913107 0.238008
vt 0.900001 0.238008
vt 0.913107 0.133159
vt 0.900001 0.133159
vt 0.913107 0.028309
vt 0.900001 0.028309
vt 0.886895 0.133159
vt 0.886895 0.028309
vt 0.886895 0.238008
vt 0.886895 0.342857
vt 0.886895 0.447706
vt 0.886895 0.552556
vt 0.886895 0.657405
vt 0.329882 0.161730
vt 0.329882 0.056881
vt 0.329882 0.266579
vt 0.329882 0.371429
vt 0.329882 0.476278
vt 0.329882 0.581127
vt 0.329882 0.685976
vt 0.672740 0.685976
vt 0.672740 0.712189
vt 0.384404 0.712189
vt 0.384404 0.685977
vt 0.329882 0.030668
vt 0.041547 0.056881
vt 0.041547 0.030668
vt 0.041547 0.161730
vt 0.041547 0.266579
vt 0.041547 0.371429
vt 0.041547 0.476278
vt 0.041547 0.581127
vt 0.041547 0.685977
vt 0.329882 0.712189
vt 0.041547 0.712189
vt 0.672739 0.030668
vt 0.672739 0.056881
vt 0.384404 0.056881
vt 0.384404 0.030669
vt 0.672739 0.161730
vt 0.384404 0.161730
vt 0.672739 0.266579
vt 0.384404 0.266579
vt 0.672739 0.371429
vt 0.384404 0.371429
vt 0.672739 0.476278
vt 0.384404 0.476278
vt 0.672740 0.581127
vt 0.384404 0.581127
vt 0.745217 0.987025
vt 0.745217 0.698689
vt 0.797641 0.698689
vt 0.797641 0.987025
vt 0.688074 0.987025
vt 0.688074 0.698689
vt 0.740498 0.698689
vt 0.740498 0.987025
vt 0.201180 0.745216
vt 0.227392 0.745216
vt 0.227392 0.797641
vt 0.201180 0.797641
vt 0.084535 0.772608
vt 0.084535 0.825033
vt 0.144037 0.745216
vt 0.170249 0.745216
vt 0.170249 0.797641
vt 0.144037 0.797641
vt 0.027392 0.746396
vt 0.027392 0.798821
vt 0.172608 0.745216
vt 0.198820 0.745216
vt 0.198820 0.797641
vt 0.172608 0.797641
vt 0.141678 0.745216
vt 0.141678 0.797641
vt 0.115465 0.797641
vt 0.115465 0.745216
vt 0.027392 0.825033
vt 0.941678 0.028309
vt 0.941678 0.133159
vt 0.915466 0.133159
vt 0.915466 0.028309
vt 0.941678 0.238008
vt 0.915466 0.238008
vt 0.941679 0.342857
vt 0.915466 0.342857
vt 0.941679 0.447706
vt 0.915466 0.447706
vt 0.941679 0.552556
vt 0.915466 0.552556
vt 0.941679 0.657405
vt 0.915466 0.657405
vt 0.970250 0.028309
vt 0.970250 0.133159
vt 0.944038 0.133159
vt 0.944038 0.028309
vt 0.970250 0.238008
vt 0.944038 0.238008
vt 0.970250 0.342857
vt 0.944038 0.342857
vt 0.970250 0.447706
vt 0.944038 0.447706
vt 0.970250 0.552556
vt 0.944038 0.552556
vt 0.970250 0.657405
vt 0.944038 0.657405
vt 0.086894 0.772608
vt 0.086894 0.746396
vt 0.084535 0.746396
vt 0.086894 0.825033
vt 0.884535 0.552556
vt 0.884535 0.657405
vt 0.884535 0.447706
vt 0.884535 0.342857
vt 0.884535 0.238008
vt 0.884535 0.133159
vt 0.884535 0.028309
vt 0.055963 0.772608
vt 0.055963 0.746396
vt 0.055963 0.825033
vn 0.0000 1.0000 0.0000
vn -0.0000 0.0000 -1.0000
vn 0.0000 0.0000 1.0000
vn 0.0000 -1.0000 0.0000
vn -1.0000 0.0000 0.0000
vn 1.0000 0.0000 0.0000
usemtl LightStone6
s 1
f 1/1/1 2/2/1 3/3/1 4/4/1
f 4/4/1 3/3/1 5/5/1 6/6/1
f 6/6/1 5/5/1 7/7/1 8/8/1
f 8/8/1 7/7/1 9/9/1 10/10/1
f 10/10/1 9/9/1 11/11/1 12/12/1
f 12/12/1 11/11/1 13/13/1 14/14/1
f 93/15/2 94/16/2 12/17/2 14/18/2
f 94/16/2 95/19/2 10/20/2 12/17/2
f 95/19/2 96/21/2 8/22/2 10/20/2
f 96/21/2 97/23/2 6/24/2 8/22/2
f 97/23/2 98/25/2 4/26/2 6/24/2
f 98/25/2 99/27/2 1/28/2 4/26/2
f 100/29/3 101/30/3 74/31/3 75/32/3
f 101/30/3 102/33/3 77/34/3 74/31/3
f 102/33/3 103/35/3 79/36/3 77/34/3
f 103/35/3 104/37/3 81/38/3 79/36/3
f 104/37/3 105/39/3 83/40/3 81/38/3
f 105/39/3 106/41/3 85/42/3 83/40/3
f 86/43/4 87/44/4 41/45/4 39/46/4
f 88/47/4 86/43/4 39/46/4 37/48/4
f 89/49/4 88/47/4 37/48/4 35/50/4
f 90/51/4 89/49/4 35/50/4 33/52/4
f 91/53/4 90/51/4 33/52/4 30/54/4
f 92/55/4 91/53/4 30/54/4 29/56/4
f 124/57/5 122/58/5 41/59/5 87/60/5
f 108/61/5 2/62/5 1/63/5 99/64/5
f 86/43/4 88/47/4 19/65/4 16/66/4
f 88/47/4 89/49/4 21/67/4 19/65/4
f 89/49/4 90/51/4 23/68/4 21/67/4
f 90/51/4 91/53/4 25/69/4 23/68/4
f 91/53/4 92/55/4 27/70/4 25/69/4
f 124/57/5 87/60/5 15/71/5 109/72/5
f 87/44/4 86/43/4 16/66/4 15/73/4
f 107/74/6 13/75/6 85/76/6 106/77/6
f 13/13/1 11/11/1 83/78/1 85/79/1
f 11/11/1 9/9/1 81/80/1 83/78/1
f 9/9/1 7/7/1 79/81/1 81/80/1
f 7/7/1 5/5/1 77/82/1 79/81/1
f 5/5/1 3/3/1 74/83/1 77/82/1
f 3/3/1 2/2/1 75/84/1 74/83/1
f 2/62/5 108/61/5 100/85/5 75/86/5
f 13/75/6 107/74/6 93/87/6 14/88/6
f 92/89/6 123/90/6 115/91/6 27/92/6
f 92/89/6 29/93/6 116/94/6 123/90/6
f 39/95/2 41/96/2 122/97/2 121/98/2
f 37/99/2 39/95/2 121/98/2 120/100/2
f 35/101/2 37/99/2 120/100/2 119/102/2
f 33/103/2 35/101/2 119/102/2 118/104/2
f 30/105/2 33/103/2 118/104/2 117/106/2
f 29/107/2 30/105/2 117/106/2 116/108/2
f 25/109/3 27/110/3 115/111/3 114/112/3
f 23/113/3 25/109/3 114/112/3 113/114/3
f 21/115/3 23/113/3 113/114/3 112/116/3
f 19/117/3 21/115/3 112/116/3 111/118/3
f 16/119/3 19/117/3 111/118/3 110/120/3
f 15/121/3 16/119/3 110/120/3 109/122/3
usemtl DarkStone6
f 109/122/3 110/120/3 17/123/3 18/124/3
f 110/120/3 111/118/3 20/125/3 17/123/3
f 111/118/3 112/116/3 22/126/3 20/125/3
f 112/116/3 113/114/3 24/127/3 22/126/3
f 113/114/3 114/112/3 26/128/3 24/127/3
f 114/112/3 115/111/3 28/129/3 26/128/3
f 116/108/2 117/106/2 31/130/2 32/131/2
f 117/106/2 118/104/2 34/132/2 31/130/2
f 118/104/2 119/102/2 36/133/2 34/132/2
f 119/102/2 120/100/2 38/134/2 36/133/2
f 120/100/2 121/98/2 40/135/2 38/134/2
f 121/98/2 122/97/2 42/136/2 40/135/2
f 43/137/3 44/138/3 45/139/3 46/140/3
f 47/141/2 32/131/2 48/142/2 49/143/2
f 32/131/2 31/130/2 50/144/2 48/142/2
f 31/130/2 34/132/2 51/145/2 50/144/2
f 34/132/2 36/133/2 52/146/2 51/145/2
f 36/133/2 38/134/2 53/147/2 52/146/2
f 38/134/2 40/135/2 54/148/2 53/147/2
f 40/135/2 42/136/2 55/149/2 54/148/2
f 42/136/2 56/150/2 57/151/2 55/149/2
f 58/152/3 59/153/3 60/154/3 61/155/3
f 59/153/3 62/156/3 63/157/3 60/154/3
f 62/156/3 64/158/3 65/159/3 63/157/3
f 64/158/3 66/160/3 67/161/3 65/159/3
f 66/160/3 68/162/3 69/163/3 67/161/3
f 68/162/3 70/164/3 71/165/3 69/163/3
f 70/164/3 43/137/3 46/140/3 71/165/3
f 58/166/5 61/167/5 57/168/5 56/169/5
f 47/170/6 49/171/6 45/172/6 44/173/6
f 49/174/1 48/175/1 46/176/1 45/177/1
f 107/74/6 46/178/6 48/179/6 93/87/6
f 32/180/4 47/181/4 44/182/4 43/183/4
f 123/90/6 116/94/6 32/184/6 43/185/6
f 56/186/4 42/187/4 59/188/4 58/189/4
f 57/190/1 61/191/1 60/192/1 55/193/1
f 123/90/6 43/185/6 28/194/6 115/91/6
f 43/195/1 70/196/1 26/197/1 28/198/1
f 70/196/1 68/199/1 24/200/1 26/197/1
f 68/199/1 66/201/1 22/202/1 24/200/1
f 66/201/1 64/203/1 20/204/1 22/202/1
f 64/203/1 62/205/1 17/206/1 20/204/1
f 62/205/1 59/207/1 18/208/1 17/206/1
f 60/209/4 63/210/4 73/211/4 72/212/4
f 63/210/4 65/213/4 76/214/4 73/211/4
f 65/213/4 67/215/4 78/216/4 76/214/4
f 67/215/4 69/217/4 80/218/4 78/216/4
f 69/217/4 71/219/4 82/220/4 80/218/4
f 71/219/4 46/221/4 84/222/4 82/220/4
f 108/61/5 60/223/5 72/224/5 100/85/5
f 46/178/6 107/74/6 106/77/6 84/225/6
f 60/223/5 108/61/5 99/64/5 55/226/5
f 82/227/3 84/228/3 106/41/3 105/39/3
f 80/229/3 82/227/3 105/39/3 104/37/3
f 78/230/3 80/229/3 104/37/3 103/35/3
f 76/231/3 78/230/3 103/35/3 102/33/3
f 73/232/3 76/231/3 102/33/3 101/30/3
f 72/233/3 73/232/3 101/30/3 100/29/3
f 54/148/2 55/149/2 99/27/2 98/25/2
f 53/147/2 54/148/2 98/25/2 97/23/2
f 52/146/2 53/147/2 97/23/2 96/21/2
f 51/145/2 52/146/2 96/21/2 95/19/2
f 50/144/2 51/145/2 95/19/2 94/16/2
f 48/142/2 50/144/2 94/16/2 93/15/2
f 59/234/5 124/57/5 109/72/5 18/235/5
f 59/234/5 42/236/5 122/58/5 124/57/5
