# Blender v2.81 (sub 16) OBJ File: 'DungeonTilesPaint.blend'
# www.blender.org
mtllib WallArch.mtl
o WallArchPaint_WallArch.000
v 0.500000 0.500000 3.250000
v 0.500000 0.500000 3.000000
v 0.500000 2.250000 3.000000
v 0.500000 2.250000 3.250000
v 0.500000 0.500000 1.500000
v 0.500000 0.500000 1.250000
v 0.500000 2.250000 1.250000
v 0.500000 2.250000 1.500000
v 0.500000 0.500000 -3.000000
v 0.500000 0.500000 -3.250000
v 0.500000 2.250000 -3.250000
v 0.500000 2.250000 -3.000000
v 0.500000 0.500000 -1.250000
v 0.500000 0.500000 -1.500000
v 0.500000 2.250000 -1.500000
v 0.500000 2.250000 -1.250000
v 0.500000 2.500000 3.000000
v 0.500000 2.500000 3.250000
v 0.500000 2.500000 1.250000
v 0.500000 2.500000 1.500000
v 0.500000 2.500000 -3.250000
v 0.500000 2.500000 -3.000000
v 0.500000 2.500000 -1.500000
v 0.500000 2.500000 -1.250000
v 0.500000 2.750000 3.000000
v 0.500000 2.750000 3.250000
v 0.500000 2.750000 2.750000
v 0.500000 2.750000 1.500000
v 0.500000 2.750000 1.750000
v 0.500000 2.750000 1.250000
v 0.500000 2.750000 -3.000000
v 0.500000 2.750000 -2.750000
v 0.500000 2.750000 -3.250000
v 0.500000 2.750000 -1.500000
v 0.500000 2.750000 -1.250000
v 0.500000 2.750000 -1.750000
v 0.500000 3.000000 3.000000
v 0.500000 3.000000 3.250000
v 0.500000 3.000000 1.500000
v 0.500000 3.000000 1.250000
v 0.500000 3.000000 -3.000000
v 0.500000 3.000000 -3.250000
v 0.500000 3.000000 -1.500000
v 0.500000 3.000000 -1.250000
v 0.750000 3.000000 3.000000
v 0.750000 3.000000 1.500000
v 0.750000 3.250000 1.500000
v 0.750000 3.250000 3.000000
v 0.750000 3.000000 1.250000
v 0.750000 3.250000 1.250000
v 0.750000 3.000000 -1.250000
v 0.750000 3.000000 -1.500000
v 0.750000 3.250000 -1.500000
v 0.750000 3.250000 -1.250000
v 0.750000 3.000000 -3.000000
v 0.750000 3.250000 -3.000000
v 0.500000 2.750000 1.000000
v 0.500000 2.750000 -1.000000
v 0.400000 2.250000 -1.250000
v 0.400000 0.500000 -1.250000
v 0.400000 2.500000 -1.250000
v 0.400000 2.750000 -1.000000
v 0.400000 2.500000 1.250000
v 0.400000 2.750000 1.000000
v 0.400000 2.250000 1.250000
v 0.400000 0.500000 1.250000
v 0.400000 2.250000 -3.000000
v 0.400000 0.500000 -3.000000
v 0.400000 2.500000 -3.000000
v 0.400000 2.750000 -2.750000
v 0.400000 2.500000 -1.500000
v 0.400000 2.750000 -1.750000
v 0.400000 2.250000 -1.500000
v 0.400000 0.500000 -1.500000
v 0.400000 2.250000 1.500000
v 0.400000 0.500000 1.500000
v 0.400000 2.500000 1.500000
v 0.400000 2.750000 1.750000
v 0.400000 2.500000 3.000000
v 0.400000 2.750000 2.750000
v 0.400000 2.250000 3.000000
v 0.400000 0.500000 3.000000
v 0.500000 3.250000 -3.000000
v 0.500000 3.250000 -1.500000
v 0.500000 3.250000 -1.250000
v 0.500000 3.250000 1.250000
v 0.500000 3.250000 1.500000
v 0.500000 3.250000 3.000000
v 0.500000 0.000000 3.000000
v 0.500000 0.000000 1.500000
v 0.750000 0.000000 1.500000
v 0.750000 0.000000 3.000000
v 0.500000 0.000000 1.250000
v 0.750000 0.000000 1.250000
v 0.500000 0.000000 -1.250000
v 0.750000 0.000000 -1.250000
v 0.500000 0.000000 -1.500000
v 0.750000 0.000000 -1.500000
v 0.500000 0.000000 -3.000000
v 0.750000 0.000000 -3.000000
v 0.750000 0.250000 -3.000000
v 0.750000 0.250000 -1.500000
v 0.750000 0.250000 -1.250000
v 0.750000 0.250000 1.250000
v 0.750000 0.250000 1.500000
v 0.750000 0.250000 3.000000
v 0.000000 3.250000 1.250000
v 0.000000 3.250000 1.500000
v 0.000000 3.250000 -1.500000
v 0.000000 3.250000 -1.250000
v 0.000000 0.000000 -3.000000
v 0.000000 0.000000 -1.500000
v 0.000000 0.250000 -1.500000
v 0.000000 0.250000 -3.000000
v 0.000000 0.000000 -1.250000
v 0.000000 0.250000 -1.250000
v 0.000000 0.000000 1.250000
v 0.000000 0.250000 1.250000
v 0.000000 0.000000 1.500000
v 0.000000 0.250000 1.500000
v 0.000000 0.000000 3.000000
v 0.000000 0.250000 3.000000
v 0.000000 0.250000 -3.250000
v 0.000000 0.500000 -3.000000
v 0.000000 0.500000 -3.250000
v 0.000000 0.500000 -1.500000
v 0.000000 0.500000 -1.250000
v 0.000000 0.500000 1.250000
v 0.000000 0.500000 1.500000
v 0.000000 0.500000 3.000000
v 0.000000 0.250000 3.250000
v 0.000000 0.500000 3.250000
v 0.000000 2.250000 -3.000000
v 0.000000 2.250000 -3.250000
v 0.000000 2.250000 -1.500000
v 0.000000 2.250000 -1.250000
v 0.000000 2.250000 1.250000
v 0.000000 2.250000 1.500000
v 0.000000 2.250000 3.000000
v 0.000000 2.250000 3.250000
v 0.000000 2.500000 -3.000000
v 0.000000 2.500000 -3.250000
v 0.000000 2.500000 -1.500000
v 0.000000 2.500000 -1.250000
v 0.000000 2.500000 1.250000
v 0.000000 2.500000 1.500000
v 0.000000 2.500000 3.000000
v 0.000000 2.500000 3.250000
v 0.000000 2.750000 -3.000000
v 0.000000 2.750000 -3.250000
v 0.000000 2.750000 -1.500000
v 0.000000 2.750000 -1.250000
v 0.000000 2.750000 1.250000
v 0.000000 2.750000 1.500000
v 0.000000 2.750000 3.000000
v 0.000000 2.750000 3.250000
v 0.000000 3.000000 -3.000000
v 0.000000 3.000000 -3.250000
v 0.000000 3.000000 -1.500000
v 0.000000 3.000000 -1.250000
v 0.000000 3.000000 1.250000
v 0.000000 3.000000 1.500000
v 0.000000 3.000000 3.000000
v 0.000000 3.000000 3.250000
v 0.000000 3.250000 -3.000000
v 0.000000 3.250000 3.000000
v 0.500000 0.250000 3.000000
v 0.500000 0.250000 1.500000
v 0.500000 0.250000 1.250000
v 0.500000 0.250000 -1.250000
v 0.500000 0.250000 -1.500000
v 0.500000 0.250000 -3.000000
v 0.500000 0.250000 3.250000
v 0.500000 0.250000 -3.250000
v 0.750000 3.125000 3.000000
v 0.750000 3.125000 1.500000
v 0.750000 3.125000 1.250000
v 0.750000 3.125000 -1.250000
v 0.750000 3.125000 -1.500000
v 0.750000 3.125000 -3.000000
v 0.000000 3.125000 -3.000000
v 0.000000 3.125000 -1.500000
v 0.000000 3.125000 -1.250000
v 0.000000 3.125000 1.250000
v 0.000000 3.125000 1.500000
v 0.000000 3.125000 3.000000
v 0.500000 3.125000 3.000000
v 0.500000 3.125000 -3.000000
v 0.750000 0.125000 -3.000000
v 0.750000 0.125000 -1.500000
v 0.750000 0.125000 -1.250000
v 0.750000 0.125000 1.250000
v 0.750000 0.125000 1.500000
v 0.750000 0.125000 3.000000
v 0.000000 0.125000 -3.000000
v 0.000000 0.125000 -1.500000
v 0.000000 0.125000 -1.250000
v 0.000000 0.125000 1.250000
v 0.000000 0.125000 1.500000
v 0.000000 0.125000 3.000000
v 0.500000 0.125000 3.000000
v 0.500000 0.125000 -3.000000
vt 0.905405 0.026779
vt 0.905405 0.175552
vt 0.893008 0.175552
vt 0.893007 0.026779
vt 0.905405 0.200347
vt 0.893008 0.200347
vt 0.905405 0.448301
vt 0.905405 0.473097
vt 0.893008 0.473097
vt 0.893008 0.448301
vt 0.905405 0.621869
vt 0.893008 0.621869
vt 0.757872 0.297049
vt 0.757872 0.445822
vt 0.733077 0.445822
vt 0.733077 0.297049
vt 0.757872 0.470617
vt 0.733077 0.470617
vt 0.757872 0.718571
vt 0.733077 0.718571
vt 0.757872 0.743367
vt 0.733077 0.743367
vt 0.757872 0.892139
vt 0.733077 0.892139
vt 0.676791 0.297049
vt 0.676791 0.445822
vt 0.651996 0.445822
vt 0.651996 0.297049
vt 0.676791 0.470617
vt 0.651996 0.470617
vt 0.676791 0.718571
vt 0.651996 0.718571
vt 0.676791 0.743367
vt 0.651996 0.743367
vt 0.676791 0.892139
vt 0.651996 0.892139
vt 0.824324 0.892139
vt 0.824324 0.743367
vt 0.836722 0.743367
vt 0.836722 0.892139
vt 0.824324 0.718571
vt 0.836722 0.718571
vt 0.824324 0.470617
vt 0.836722 0.470617
vt 0.824324 0.445822
vt 0.836722 0.445822
vt 0.824324 0.297049
vt 0.836722 0.297049
vt 0.807463 0.718571
vt 0.807463 0.743367
vt 0.807463 0.445822
vt 0.807463 0.470617
vt 0.026903 0.053806
vt 0.026903 0.202579
vt 0.014505 0.202579
vt 0.014505 0.053806
vt 0.026903 0.227374
vt 0.014505 0.227374
vt 0.026903 0.475328
vt 0.014505 0.475328
vt 0.026903 0.500124
vt 0.014505 0.500124
vt 0.026903 0.648896
vt 0.014505 0.648896
vt 0.726382 0.743367
vt 0.726382 0.892139
vt 0.726382 0.718571
vt 0.726382 0.470617
vt 0.726382 0.445822
vt 0.726382 0.297049
vt 0.708282 0.259112
vt 0.708282 0.011158
vt 0.881849 0.011158
vt 0.881850 0.259112
vt 0.683486 0.259112
vt 0.658691 0.234317
vt 0.658691 0.035953
vt 0.683486 0.011158
vt 0.168857 0.762335
vt 0.317629 0.762335
vt 0.317630 0.935903
vt 0.168857 0.935903
vt 0.168857 0.737540
vt 0.317629 0.737540
vt 0.193652 0.712744
vt 0.292834 0.712744
vt 0.006695 0.762335
vt 0.155467 0.762335
vt 0.155467 0.935903
vt 0.006695 0.935903
vt 0.006695 0.737540
vt 0.155467 0.737540
vt 0.031490 0.712744
vt 0.130672 0.712744
vt 0.807463 0.892139
vt 0.807463 0.297049
vt 0.559459 0.730845
vt 0.571857 0.730845
vt 0.571857 0.780436
vt 0.559459 0.780436
vt 0.586486 0.706050
vt 0.586486 0.730845
vt 0.574089 0.730845
vt 0.574089 0.706050
vt 0.613513 0.755641
vt 0.613513 0.780436
vt 0.601116 0.780436
vt 0.601116 0.755641
vt 0.601116 0.706050
vt 0.613513 0.706050
vt 0.520035 0.730845
vt 0.532432 0.730845
vt 0.532432 0.780436
vt 0.520035 0.780436
vt 0.520035 0.706050
vt 0.532432 0.706050
vt 0.571857 0.706050
vt 0.559459 0.706050
vt 0.574089 0.780436
vt 0.586486 0.780436
vt 0.336846 0.500124
vt 0.336846 0.648896
vt 0.324448 0.648896
vt 0.324448 0.500124
vt 0.336846 0.475328
vt 0.324448 0.475328
vt 0.336846 0.227374
vt 0.324448 0.227374
vt 0.336846 0.202579
vt 0.324448 0.202579
vt 0.336846 0.053806
vt 0.324448 0.053806
vt 0.611579 0.029011
vt 0.611579 0.053806
vt 0.438011 0.053806
vt 0.438011 0.029011
vt 0.611579 0.202579
vt 0.611579 0.227374
vt 0.438011 0.227374
vt 0.438011 0.202579
vt 0.611579 0.648896
vt 0.611579 0.673692
vt 0.438011 0.673692
vt 0.438011 0.648896
vt 0.611579 0.475328
vt 0.611579 0.500124
vt 0.438011 0.500124
vt 0.438011 0.475328
vt 0.413216 0.053806
vt 0.413216 0.029011
vt 0.413216 0.227374
vt 0.413216 0.202579
vt 0.413216 0.673692
vt 0.413216 0.648896
vt 0.413216 0.500124
vt 0.413216 0.475328
vt 0.388420 0.053806
vt 0.388420 0.029011
vt 0.388420 0.078602
vt 0.388420 0.202579
vt 0.388420 0.177783
vt 0.388420 0.227374
vt 0.388421 0.648896
vt 0.388420 0.624101
vt 0.388421 0.673692
vt 0.388420 0.500124
vt 0.388420 0.475328
vt 0.388420 0.524919
vt 0.363625 0.053806
vt 0.363625 0.029011
vt 0.363625 0.202579
vt 0.363625 0.227374
vt 0.363625 0.648896
vt 0.363625 0.673692
vt 0.363625 0.500124
vt 0.363625 0.475328
vt 0.388420 0.252169
vt 0.388420 0.450533
vt 0.917803 0.200347
vt 0.917803 0.448301
vt 0.876122 0.477560
vt 0.876122 0.303992
vt 0.886040 0.303992
vt 0.886040 0.477560
vt 0.876122 0.279197
vt 0.886040 0.279197
vt 0.875229 0.281428
vt 0.875229 0.306223
vt 0.865311 0.306223
vt 0.865311 0.281428
vt 0.875229 0.504587
vt 0.875229 0.529382
vt 0.865311 0.529382
vt 0.865311 0.504587
vt 0.627473 0.909992
vt 0.627473 0.885197
vt 0.637391 0.885197
vt 0.637391 0.909992
vt 0.627473 0.711629
vt 0.637391 0.711629
vt 0.876122 0.693776
vt 0.876122 0.520208
vt 0.886040 0.520208
vt 0.886040 0.693776
vt 0.876122 0.495413
vt 0.886040 0.495413
vt 0.518473 0.709397
vt 0.518473 0.734192
vt 0.508554 0.734192
vt 0.508554 0.709397
vt 0.518473 0.833374
vt 0.518473 0.858170
vt 0.508554 0.858170
vt 0.508554 0.833374
vt 0.335581 0.909992
vt 0.335581 0.885197
vt 0.345500 0.885197
vt 0.345500 0.909992
vt 0.335581 0.711629
vt 0.345500 0.711629
vt 0.324771 0.909992
vt 0.324771 0.736424
vt 0.334689 0.736424
vt 0.334689 0.909992
vt 0.324771 0.711629
vt 0.334689 0.711629
vt 0.486933 0.858170
vt 0.486933 0.833374
vt 0.496851 0.833374
vt 0.496851 0.858170
vt 0.486933 0.734192
vt 0.486933 0.709397
vt 0.496851 0.709397
vt 0.496851 0.734192
vt 0.638284 0.909992
vt 0.638284 0.885197
vt 0.648202 0.885197
vt 0.648202 0.909992
vt 0.638284 0.711629
vt 0.648202 0.711629
vt 0.944830 0.026779
vt 0.944830 0.175552
vt 0.920035 0.175552
vt 0.920035 0.026779
vt 0.944830 0.200347
vt 0.920035 0.200347
vt 0.944830 0.448301
vt 0.920035 0.448301
vt 0.944830 0.473097
vt 0.920035 0.473097
vt 0.944830 0.621869
vt 0.920035 0.621869
vt 0.507662 0.858170
vt 0.497744 0.858170
vt 0.497744 0.709397
vt 0.507662 0.709397
vt 0.875229 0.799652
vt 0.865311 0.799652
vt 0.865311 0.551698
vt 0.875229 0.551698
vt 0.486040 0.858170
vt 0.476122 0.858170
vt 0.476122 0.709397
vt 0.486040 0.709397
vt 0.312050 0.202579
vt 0.312050 0.053806
vt 0.312050 0.227374
vt 0.312050 0.475328
vt 0.312050 0.500124
vt 0.312050 0.648896
vt 0.312050 0.029011
vt 0.287255 0.053806
vt 0.287255 0.029011
vt 0.287255 0.202579
vt 0.287255 0.227374
vt 0.287255 0.475328
vt 0.287255 0.500124
vt 0.287255 0.648896
vt 0.312050 0.673692
vt 0.287255 0.673692
vt 0.113687 0.053806
vt 0.113687 0.029011
vt 0.113687 0.202579
vt 0.113687 0.227374
vt 0.113687 0.475328
vt 0.113687 0.500124
vt 0.113687 0.648896
vt 0.113687 0.673692
vt 0.088892 0.053806
vt 0.088892 0.029011
vt 0.088892 0.202579
vt 0.088892 0.227374
vt 0.088892 0.475328
vt 0.088892 0.500124
vt 0.088892 0.648896
vt 0.088892 0.673692
vt 0.064096 0.053806
vt 0.064096 0.029011
vt 0.064096 0.202579
vt 0.064096 0.227374
vt 0.064096 0.475328
vt 0.064096 0.500124
vt 0.064096 0.648896
vt 0.064096 0.673692
vt 0.039301 0.053806
vt 0.039301 0.029011
vt 0.039301 0.202579
vt 0.039301 0.227374
vt 0.039301 0.475328
vt 0.039301 0.500124
vt 0.039301 0.648896
vt 0.039301 0.673692
vt 0.547062 0.730845
vt 0.547062 0.706050
vt 0.544830 0.706050
vt 0.544830 0.730845
vt 0.636375 0.053806
vt 0.636375 0.202579
vt 0.636375 0.227374
vt 0.636375 0.475328
vt 0.636375 0.500124
vt 0.636375 0.648896
vt 0.863749 0.743367
vt 0.863749 0.892139
vt 0.838954 0.892139
vt 0.838954 0.743367
vt 0.863749 0.470617
vt 0.863749 0.718571
vt 0.838954 0.718571
vt 0.838954 0.470617
vt 0.863749 0.297049
vt 0.863749 0.445822
vt 0.838954 0.445822
vt 0.838954 0.297049
vt 0.636375 0.029011
vt 0.636375 0.673692
vt 0.368683 0.754525
vt 0.368683 0.704934
vt 0.393479 0.704934
vt 0.393479 0.754525
vt 0.544830 0.780436
vt 0.395710 0.754525
vt 0.395710 0.704934
vt 0.420506 0.704934
vt 0.420506 0.754525
vt 0.894123 0.908876
vt 0.943714 0.908876
vt 0.943714 0.933672
vt 0.894123 0.933672
vt 0.894123 0.685717
vt 0.894123 0.660922
vt 0.943714 0.660922
vt 0.943714 0.685717
vt 0.894123 0.710513
vt 0.943714 0.710513
vt 0.894123 0.735308
vt 0.943714 0.735308
vt 0.997768 0.285023
vt 0.948178 0.285023
vt 0.948178 0.260228
vt 0.997768 0.260228
vt 0.948178 0.037069
vt 0.948178 0.012274
vt 0.997768 0.012274
vt 0.997768 0.037069
vt 0.948178 0.061865
vt 0.997768 0.061865
vt 0.948178 0.086660
vt 0.997768 0.086660
vt 0.447533 0.754525
vt 0.422737 0.754525
vt 0.422737 0.704934
vt 0.447533 0.704934
vt 0.598884 0.730845
vt 0.598884 0.780436
vt 0.474560 0.704934
vt 0.474560 0.754525
vt 0.449764 0.754525
vt 0.449764 0.704934
vt 0.547062 0.780436
vt 0.917803 0.473097
vt 0.917803 0.621869
vt 0.917803 0.175552
vt 0.917803 0.026779
vt 0.625911 0.755641
vt 0.625911 0.706050
vt 0.625911 0.780436
vt 0.598884 0.706050
vt 0.811926 0.445822
vt 0.811926 0.297049
vt 0.811926 0.470617
vt 0.811927 0.718571
vt 0.811927 0.743367
vt 0.811927 0.892139
vn 1.0000 0.0000 0.0000
vn 0.0000 1.0000 0.0000
vn 0.0000 -1.0000 0.0000
vn -1.0000 0.0000 0.0000
vn 0.0000 0.0000 1.0000
vn 0.0000 0.0000 -1.0000
vn 0.0000 -0.7071 0.7071
vn 0.0000 -0.7071 -0.7071
usemtl LightStone7
s off
f 175/1/1 176/2/1 47/3/1 48/4/1
f 176/2/1 177/5/1 50/6/1 47/3/1
f 178/7/1 179/8/1 53/9/1 54/10/1
f 179/8/1 180/11/1 56/12/1 53/9/1
f 83/13/2 84/14/2 53/15/2 56/16/2
f 84/14/2 85/17/2 54/18/2 53/15/2
f 85/17/2 86/19/2 50/20/2 54/18/2
f 86/19/2 87/21/2 47/22/2 50/20/2
f 87/21/2 88/23/2 48/24/2 47/22/2
f 89/25/3 90/26/3 91/27/3 92/28/3
f 90/26/3 93/29/3 94/30/3 91/27/3
f 93/29/3 95/31/3 96/32/3 94/30/3
f 95/31/3 97/33/3 98/34/3 96/32/3
f 97/33/3 99/35/3 100/36/3 98/34/3
f 189/37/1 190/38/1 98/39/1 100/40/1
f 190/38/1 191/41/1 96/42/1 98/39/1
f 191/41/1 192/43/1 94/44/1 96/42/1
f 192/43/1 193/45/1 91/46/1 94/44/1
f 193/45/1 194/47/1 92/48/1 91/46/1
f 87/21/2 86/19/2 107/49/2 108/50/2
f 85/17/2 84/14/2 109/51/2 110/52/2
f 181/53/4 182/54/4 109/55/4 165/56/4
f 182/54/4 183/57/4 110/58/4 109/55/4
f 183/57/4 184/59/4 107/60/4 110/58/4
f 184/59/4 185/61/4 108/62/4 107/60/4
f 185/61/4 186/63/4 166/64/4 108/62/4
f 99/35/3 97/33/3 112/65/3 111/66/3
f 97/33/3 95/31/3 115/67/3 112/65/3
f 95/31/3 93/29/3 117/68/3 115/67/3
f 93/29/3 90/26/3 119/69/3 117/68/3
f 90/26/3 89/25/3 121/70/3 119/69/3
f 59/71/1 65/72/1 66/73/1 60/74/1
f 61/75/1 62/76/1 64/77/1 63/78/1
f 59/71/1 61/75/1 63/78/1 65/72/1
f 75/79/1 81/80/1 82/81/1 76/82/1
f 75/79/1 77/83/1 79/84/1 81/80/1
f 77/83/1 78/85/1 80/86/1 79/84/1
f 67/87/1 73/88/1 74/89/1 68/90/1
f 67/87/1 69/91/1 71/92/1 73/88/1
f 69/91/1 70/93/1 72/94/1 71/92/1
f 87/21/2 108/50/2 166/95/2 88/23/2
f 85/17/2 110/52/2 107/49/2 86/19/2
f 83/13/2 165/96/2 109/51/2 84/14/2
f 187/97/5 88/98/5 166/99/5 186/100/5
f 194/101/5 201/102/5 89/103/5 92/104/5
f 202/105/6 189/106/6 100/107/6 99/108/6
f 202/105/6 99/108/6 111/109/6 195/110/6
f 83/111/6 188/112/6 181/113/6 165/114/6
f 83/111/6 56/115/6 180/116/6 188/112/6
f 48/117/5 88/98/5 187/97/5 175/118/5
f 50/6/1 177/5/1 178/7/1 54/10/1
f 121/119/5 89/103/5 201/102/5 200/120/5
f 119/121/4 121/122/4 200/123/4 199/124/4
f 117/125/4 119/121/4 199/124/4 198/126/4
f 115/127/4 117/125/4 198/126/4 197/128/4
f 112/129/4 115/127/4 197/128/4 196/130/4
f 111/131/4 112/129/4 196/130/4 195/132/4
usemtl DarkStone7
f 1/133/1 2/134/1 3/135/1 4/136/1
f 5/137/1 6/138/1 7/139/1 8/140/1
f 9/141/1 10/142/1 11/143/1 12/144/1
f 13/145/1 14/146/1 15/147/1 16/148/1
f 4/136/1 3/135/1 17/149/1 18/150/1
f 8/140/1 7/139/1 19/151/1 20/152/1
f 12/144/1 11/143/1 21/153/1 22/154/1
f 16/148/1 15/147/1 23/155/1 24/156/1
f 18/150/1 17/149/1 25/157/1 26/158/1
f 17/149/1 27/159/1 25/157/1
f 20/152/1 28/160/1 29/161/1
f 20/152/1 19/151/1 30/162/1 28/160/1
f 22/154/1 31/163/1 32/164/1
f 22/154/1 21/153/1 33/165/1 31/163/1
f 24/156/1 23/155/1 34/166/1 35/167/1
f 23/155/1 36/168/1 34/166/1
f 26/158/1 25/157/1 37/169/1 38/170/1
f 25/157/1 27/159/1 37/169/1
f 29/161/1 28/160/1 39/171/1
f 28/160/1 30/162/1 40/172/1 39/171/1
f 32/164/1 31/163/1 41/173/1
f 31/163/1 33/165/1 42/174/1 41/173/1
f 35/167/1 34/166/1 43/175/1 44/176/1
f 34/166/1 36/168/1 43/175/1
f 40/172/1 30/162/1 57/177/1
f 30/162/1 19/151/1 57/177/1
f 24/156/1 35/167/1 58/178/1
f 35/167/1 44/176/1 58/178/1
f 177/5/1 49/179/1 51/180/1 178/7/1
f 13/181/5 16/182/5 59/183/5 60/184/5
f 16/182/5 24/185/5 61/186/5 59/183/5
f 24/187/7 58/188/7 62/189/7 61/190/7
f 57/191/8 19/192/8 63/193/8 64/194/8
f 19/195/6 7/196/6 65/197/6 63/198/6
f 7/196/6 6/199/6 66/200/6 65/197/6
f 9/201/5 12/202/5 67/203/5 68/204/5
f 12/202/5 22/205/5 69/206/5 67/203/5
f 22/207/7 32/208/7 70/209/7 69/210/7
f 36/211/8 23/212/8 71/213/8 72/214/8
f 23/215/6 15/216/6 73/217/6 71/218/6
f 15/216/6 14/219/6 74/220/6 73/217/6
f 5/221/5 8/222/5 75/223/5 76/224/5
f 8/222/5 20/225/5 77/226/5 75/223/5
f 20/227/7 29/228/7 78/229/7 77/230/7
f 27/231/8 17/232/8 79/233/8 80/234/8
f 17/235/6 3/236/6 81/237/6 79/238/6
f 3/236/6 2/239/6 82/240/6 81/237/6
f 37/241/3 39/242/3 46/243/3 45/244/3
f 39/242/3 40/245/3 49/246/3 46/243/3
f 40/245/3 44/247/3 51/248/3 49/246/3
f 44/247/3 43/249/3 52/250/3 51/248/3
f 43/249/3 41/251/3 55/252/3 52/250/3
f 5/253/2 76/254/2 82/255/2 2/256/2
f 13/257/2 60/258/2 66/259/2 6/260/2
f 9/261/2 68/262/2 74/263/2 14/264/2
f 195/132/4 196/130/4 113/265/4 114/266/4
f 196/130/4 197/128/4 116/267/4 113/265/4
f 197/128/4 198/126/4 118/268/4 116/267/4
f 198/126/4 199/124/4 120/269/4 118/268/4
f 199/124/4 200/123/4 122/270/4 120/269/4
f 123/271/4 114/266/4 124/272/4 125/273/4
f 114/266/4 113/265/4 126/274/4 124/272/4
f 113/265/4 116/267/4 127/275/4 126/274/4
f 116/267/4 118/268/4 128/276/4 127/275/4
f 118/268/4 120/269/4 129/277/4 128/276/4
f 120/269/4 122/270/4 130/278/4 129/277/4
f 122/270/4 131/279/4 132/280/4 130/278/4
f 125/273/4 124/272/4 133/281/4 134/282/4
f 124/272/4 126/274/4 135/283/4 133/281/4
f 126/274/4 127/275/4 136/284/4 135/283/4
f 127/275/4 128/276/4 137/285/4 136/284/4
f 128/276/4 129/277/4 138/286/4 137/285/4
f 129/277/4 130/278/4 139/287/4 138/286/4
f 130/278/4 132/280/4 140/288/4 139/287/4
f 134/282/4 133/281/4 141/289/4 142/290/4
f 133/281/4 135/283/4 143/291/4 141/289/4
f 135/283/4 136/284/4 144/292/4 143/291/4
f 136/284/4 137/285/4 145/293/4 144/292/4
f 137/285/4 138/286/4 146/294/4 145/293/4
f 138/286/4 139/287/4 147/295/4 146/294/4
f 139/287/4 140/288/4 148/296/4 147/295/4
f 142/290/4 141/289/4 149/297/4 150/298/4
f 141/289/4 143/291/4 151/299/4 149/297/4
f 143/291/4 144/292/4 152/300/4 151/299/4
f 144/292/4 145/293/4 153/301/4 152/300/4
f 145/293/4 146/294/4 154/302/4 153/301/4
f 146/294/4 147/295/4 155/303/4 154/302/4
f 147/295/4 148/296/4 156/304/4 155/303/4
f 150/298/4 149/297/4 157/305/4 158/306/4
f 149/297/4 151/299/4 159/307/4 157/305/4
f 151/299/4 152/300/4 160/308/4 159/307/4
f 152/300/4 153/301/4 161/309/4 160/308/4
f 153/301/4 154/302/4 162/310/4 161/309/4
f 154/302/4 155/303/4 163/311/4 162/310/4
f 155/303/4 156/304/4 164/312/4 163/311/4
f 175/118/5 187/97/5 37/313/5 45/314/5
f 188/112/6 180/116/6 55/315/6 41/316/6
f 5/137/1 2/134/1 167/317/1 168/318/1
f 13/145/1 6/138/1 169/319/1 170/320/1
f 9/141/1 14/146/1 171/321/1 172/322/1
f 168/323/2 167/324/2 106/325/2 105/326/2
f 170/327/2 169/328/2 104/329/2 103/330/2
f 172/331/2 171/332/2 102/333/2 101/334/2
f 1/133/1 173/335/1 167/317/1 2/134/1
f 104/329/2 169/328/2 168/323/2 105/326/2
f 102/333/2 171/332/2 170/327/2 103/330/2
f 13/145/1 170/320/1 171/321/1 14/146/1
f 5/137/1 168/318/1 169/319/1 6/138/1
f 9/141/1 172/322/1 174/336/1 10/142/1
f 78/229/3 29/228/3 27/231/3 80/234/3
f 29/161/1 39/171/1 37/169/1 27/159/1
f 62/189/3 58/188/3 57/191/3 64/194/3
f 58/178/1 44/176/1 40/172/1 57/177/1
f 70/209/3 32/208/3 36/211/3 72/214/3
f 32/164/1 41/173/1 43/175/1 36/168/1
f 37/337/2 163/338/2 164/339/2 38/340/2
f 188/112/6 41/316/6 157/341/6 181/113/6
f 42/342/2 158/343/2 157/344/2 41/345/2
f 1/346/5 132/347/5 131/348/5 173/349/5
f 26/350/5 38/351/5 164/352/5 156/353/5
f 18/354/5 26/350/5 156/353/5 148/355/5
f 4/356/5 18/354/5 148/355/5 140/357/5
f 1/346/5 4/356/5 140/357/5 132/347/5
f 174/358/6 123/359/6 125/360/6 10/361/6
f 150/362/6 158/363/6 42/364/6 33/365/6
f 142/366/6 150/362/6 33/365/6 21/367/6
f 134/368/6 142/366/6 21/367/6 11/369/6
f 125/360/6 134/368/6 11/369/6 10/361/6
f 167/370/3 173/371/3 131/372/3 122/373/3
f 200/120/5 201/102/5 167/374/5 122/375/5
f 123/376/3 174/377/3 172/378/3 114/379/3
f 37/313/5 187/97/5 186/100/5 163/380/5
f 162/310/4 163/311/4 186/63/4 185/61/4
f 161/309/4 162/310/4 185/61/4 184/59/4
f 160/308/4 161/309/4 184/59/4 183/57/4
f 159/307/4 160/308/4 183/57/4 182/54/4
f 157/305/4 159/307/4 182/54/4 181/53/4
f 52/381/1 55/382/1 180/11/1 179/8/1
f 51/180/1 52/381/1 179/8/1 178/7/1
f 46/383/1 49/179/1 177/5/1 176/2/1
f 45/384/1 46/383/1 176/2/1 175/1/1
f 172/385/6 202/105/6 195/110/6 114/386/6
f 172/385/6 101/387/6 189/106/6 202/105/6
f 106/388/5 167/374/5 201/102/5 194/101/5
f 105/389/1 106/390/1 194/47/1 193/45/1
f 104/391/1 105/389/1 193/45/1 192/43/1
f 103/392/1 104/391/1 192/43/1 191/41/1
f 102/393/1 103/392/1 191/41/1 190/38/1
f 101/394/1 102/393/1 190/38/1 189/37/1
